999
DXF data, created by potrace 1.12, written by Peter Selinger 2001-2015
  0
SECTION
  2
HEADER
  9
$ACADVER
  1
AC1006
  9
$EXTMIN
 10
0.000000
 20
0.000000
 30
0.000000
  9
$EXTMAX
 10
791.607893
 20
134.737291
 30
0.000000
  0
ENDSEC
  0
SECTION
  2
ENTITIES
  0
POLYLINE
  8
0
 66
1
 70
1
  0
VERTEX
  8
0
 10
394.827353
 20
133.876262
 42
0.000000
  0
VERTEX
  8
0
 10
390.327353
 20
133.176649
 42
0.000000
  0
VERTEX
  8
0
 10
395.636370
 20
133.026455
 42
0.013585
  0
VERTEX
  8
0
 10
397.840231
 20
133.023999
 42
0.038309
  0
VERTEX
  8
0
 10
399.371416
 20
133.181704
 42
0.075512
  0
VERTEX
  8
0
 10
400.215929
 20
133.470925
 42
0.435726
  0
VERTEX
  8
0
 10
400.327353
 20
133.876262
 42
0.019369
  0
VERTEX
  8
0
 10
400.076653
 20
134.248826
 42
0.032455
  0
VERTEX
  8
0
 10
399.834765
 20
134.538392
 42
0.035673
  0
VERTEX
  8
0
 10
399.628732
 20
134.726016
 42
0.346373
  0
VERTEX
  8
0
 10
399.518336
 20
134.726068
 42
-0.121216
  0
VERTEX
  8
0
 10
399.354299
 20
134.651797
 42
-0.001171
  0
VERTEX
  8
0
 10
398.061579
 20
134.414482
 42
-0.003802
  0
VERTEX
  8
0
 10
396.565957
 20
134.155268
 42
-0.002443
  0
SEQEND
  0
POLYLINE
  8
0
 66
1
 70
1
  0
VERTEX
  8
0
 10
207.091103
 20
133.158680
 42
0.022548
  0
VERTEX
  8
0
 10
208.312541
 20
133.029969
 42
0.015659
  0
VERTEX
  8
0
 10
209.699899
 20
132.990299
 42
0.015827
  0
VERTEX
  8
0
 10
211.036870
 20
133.036284
 42
0.031163
  0
VERTEX
  8
0
 10
212.091103
 20
133.172330
 42
0.248898
  0
VERTEX
  8
0
 10
212.283041
 20
133.327076
 42
0.490820
  0
VERTEX
  8
0
 10
212.201704
 20
133.473115
 42
0.030832
  0
VERTEX
  8
0
 10
211.124433
 20
133.568630
 42
0.007380
  0
VERTEX
  8
0
 10
209.327353
 20
133.590247
 42
0.006817
  0
VERTEX
  8
0
 10
207.539071
 20
133.560983
 42
0.040183
  0
VERTEX
  8
0
 10
206.607954
 20
133.457844
 42
0.720633
  0
VERTEX
  8
0
 10
206.589078
 20
133.314874
 42
0.075924
  0
SEQEND
  0
POLYLINE
  8
0
 66
1
 70
1
  0
VERTEX
  8
0
 10
578.327353
 20
132.876262
 42
0.420328
  0
VERTEX
  8
0
 10
578.429061
 20
132.464637
 42
0.077973
  0
VERTEX
  8
0
 10
579.235739
 20
132.145137
 42
0.040398
  0
VERTEX
  8
0
 10
580.694590
 20
131.938468
 42
0.014995
  0
VERTEX
  8
0
 10
582.768336
 20
131.876262
 42
0.018609
  0
VERTEX
  8
0
 10
584.707528
 20
131.948458
 42
0.030190
  0
VERTEX
  8
0
 10
586.341267
 20
132.170012
 42
0.030871
  0
VERTEX
  8
0
 10
587.545346
 20
132.486296
 42
0.323693
  0
VERTEX
  8
0
 10
587.827353
 20
132.876262
 42
0.308946
  0
VERTEX
  8
0
 10
587.562073
 20
133.264614
 42
0.037703
  0
VERTEX
  8
0
 10
586.522814
 20
133.582512
 42
0.034160
  0
VERTEX
  8
0
 10
585.088487
 20
133.803968
 42
0.021227
  0
VERTEX
  8
0
 10
583.386370
 20
133.876262
 42
0.020930
  0
VERTEX
  8
0
 10
581.640537
 20
133.803149
 42
0.027868
  0
VERTEX
  8
0
 10
580.068378
 20
133.582512
 42
0.027581
  0
VERTEX
  8
0
 10
578.827055
 20
133.265153
 42
0.179846
  0
SEQEND
  0
POLYLINE
  8
0
 66
1
 70
1
  0
VERTEX
  8
0
 10
49.827353
 20
131.869064
 42
0.296806
  0
VERTEX
  8
0
 10
50.077596
 20
131.484641
 42
0.043381
  0
VERTEX
  8
0
 10
51.002353
 20
131.167897
 42
0.037417
  0
VERTEX
  8
0
 10
52.294397
 20
130.948123
 42
0.023426
  0
VERTEX
  8
0
 10
53.827353
 20
130.876262
 42
0.019688
  0
VERTEX
  8
0
 10
55.360547
 20
130.936655
 42
0.031838
  0
VERTEX
  8
0
 10
56.652353
 20
131.121856
 42
0.033686
  0
VERTEX
  8
0
 10
57.597445
 20
131.386877
 42
0.317588
  0
VERTEX
  8
0
 10
57.827353
 20
131.712328
 42
0.308429
  0
VERTEX
  8
0
 10
57.599292
 20
132.046871
 42
0.032717
  0
VERTEX
  8
0
 10
56.652353
 20
132.348841
 42
0.031397
  0
VERTEX
  8
0
 10
55.360444
 20
132.584611
 42
0.019646
  0
VERTEX
  8
0
 10
53.827353
 20
132.705130
 42
0.023406
  0
VERTEX
  8
0
 10
52.294273
 20
132.693416
 42
0.037920
  0
VERTEX
  8
0
 10
51.002353
 20
132.524189
 42
0.044707
  0
VERTEX
  8
0
 10
50.079630
 20
132.243397
 42
0.305516
  0
SEQEND
  0
POLYLINE
  8
0
 66
1
 70
1
  0
VERTEX
  8
0
 10
262.827353
 20
130.768234
 42
0.000383
  0
VERTEX
  8
0
 10
201.790983
 20
130.397678
 42
0.000425
  0
VERTEX
  8
0
 10
142.848183
 20
129.944518
 42
0.000393
  0
VERTEX
  8
0
 10
92.564969
 20
129.475624
 42
0.002218
  0
VERTEX
  8
0
 10
65.728053
 20
129.085219
 42
0.000742
  0
VERTEX
  8
0
 10
35.936552
 20
128.475414
 42
0.009660
  0
VERTEX
  8
0
 10
24.864296
 20
128.018194
 42
0.026642
  0
VERTEX
  8
0
 10
18.728662
 20
127.316539
 42
0.071046
  0
VERTEX
  8
0
 10
14.541626
 20
125.979989
 42
0.052664
  0
VERTEX
  8
0
 10
10.046135
 20
123.186093
 42
0.052243
  0
VERTEX
  8
0
 10
6.220122
 20
119.507980
 42
0.052078
  0
VERTEX
  8
0
 10
3.229408
 20
115.104910
 42
0.051673
  0
VERTEX
  8
0
 10
1.203733
 20
110.167605
 42
0.020225
  0
VERTEX
  8
0
 10
0.284019
 20
106.499028
 42
0.050938
  0
VERTEX
  8
0
 10
0.000021
 20
103.762353
 42
0.036002
  0
VERTEX
  8
0
 10
0.228519
 20
100.519989
 42
0.006209
  0
VERTEX
  8
0
 10
1.178307
 20
94.431366
 42
0.033048
  0
VERTEX
  8
0
 10
4.725742
 20
79.498658
 42
0.016009
  0
VERTEX
  8
0
 10
11.114634
 20
60.926660
 42
0.015778
  0
VERTEX
  8
0
 10
18.505419
 20
43.193922
 42
0.042626
  0
VERTEX
  8
0
 10
25.178186
 20
31.310592
 42
0.045746
  0
VERTEX
  8
0
 10
31.471772
 20
23.658246
 42
0.034170
  0
VERTEX
  8
0
 10
39.668067
 20
16.429114
 42
0.033903
  0
VERTEX
  8
0
 10
48.862118
 20
10.317206
 42
0.042442
  0
VERTEX
  8
0
 10
58.151203
 20
6.011147
 42
0.000000
  0
VERTEX
  8
0
 10
65.327353
 20
3.397815
 42
0.000000
  0
VERTEX
  8
0
 10
143.827353
 20
2.789292
 42
-0.000565
  0
VERTEX
  8
0
 10
180.677097
 20
2.461980
 42
-0.000285
  0
VERTEX
  8
0
 10
227.174228
 20
1.969947
 42
-0.000283
  0
VERTEX
  8
0
 10
275.233326
 20
1.406865
 42
-0.000420
  0
VERTEX
  8
0
 10
317.327353
 20
0.854554
 42
0.001524
  0
VERTEX
  8
0
 10
371.890852
 20
0.259155
 42
0.001610
  0
VERTEX
  8
0
 10
425.466424
 20
0.010338
 42
0.001313
  0
VERTEX
  8
0
 10
487.578482
 20
0.085031
 42
0.000577
  0
VERTEX
  8
0
 10
569.827353
 20
0.494892
 42
0.000000
  0
VERTEX
  8
0
 10
727.327353
 20
1.461444
 42
0.000000
  0
VERTEX
  8
0
 10
736.369138
 20
6.162553
 42
0.033438
  0
VERTEX
  8
0
 10
748.400388
 20
13.478138
 42
0.049005
  0
VERTEX
  8
0
 10
757.779341
 20
21.557557
 42
0.047547
  0
VERTEX
  8
0
 10
765.602463
 20
31.498388
 42
0.029218
  0
VERTEX
  8
0
 10
772.924871
 20
44.488232
 42
0.016805
  0
VERTEX
  8
0
 10
779.157251
 20
58.396625
 42
0.015948
  0
VERTEX
  8
0
 10
784.559473
 20
72.934940
 42
0.016603
  0
VERTEX
  8
0
 10
788.771010
 20
87.013221
 42
0.025279
  0
VERTEX
  8
0
 10
791.392423
 20
99.500101
 42
0.096026
  0
VERTEX
  8
0
 10
791.134993
 20
106.834704
 42
0.072160
  0
VERTEX
  8
0
 10
788.203718
 20
114.378346
 42
0.070932
  0
VERTEX
  8
0
 10
783.180831
 20
120.899705
 42
0.086190
  0
VERTEX
  8
0
 10
776.827353
 20
125.254724
 42
0.075338
  0
VERTEX
  8
0
 10
772.505981
 20
126.490570
 42
0.020264
  0
VERTEX
  8
0
 10
765.378057
 20
127.116824
 42
0.007960
  0
VERTEX
  8
0
 10
752.465664
 20
127.519708
 42
0.000657
  0
VERTEX
  8
0
 10
718.827353
 20
127.989232
 42
-0.000321
  0
VERTEX
  8
0
 10
696.035674
 20
128.292072
 42
-0.000267
  0
VERTEX
  8
0
 10
671.789853
 20
128.642775
 42
-0.000269
  0
VERTEX
  8
0
 10
649.580269
 20
128.987862
 42
-0.000730
  0
VERTEX
  8
0
 10
633.827353
 20
129.264122
 42
0.001802
  0
VERTEX
  8
0
 10
616.674097
 20
129.528152
 42
0.000433
  0
VERTEX
  8
0
 10
588.227353
 20
129.838831
 42
0.000445
  0
VERTEX
  8
0
 10
555.574228
 20
130.138114
 42
0.000441
  0
VERTEX
  8
0
 10
522.827353
 20
130.380242
 42
-0.000274
  0
VERTEX
  8
0
 10
491.285651
 20
130.602929
 42
-0.000352
  0
VERTEX
  8
0
 10
462.274228
 20
130.844078
 42
-0.000269
  0
VERTEX
  8
0
 10
437.951582
 20
131.076460
 42
-0.003048
  0
VERTEX
  8
0
 10
428.327353
 20
131.232276
 42
0.006084
  0
VERTEX
  8
0
 10
417.598202
 20
131.340834
 42
0.000189
  0
VERTEX
  8
0
 10
373.524228
 20
131.233876
 42
0.000369
  0
VERTEX
  8
0
 10
321.579836
 20
131.049849
 42
0.000256
  0
SEQEND
  0
POLYLINE
  8
0
 66
1
 70
1
  0
VERTEX
  8
0
 10
223.827353
 20
119.855918
 42
0.000000
  0
VERTEX
  8
0
 10
223.827353
 20
115.835574
 42
0.000000
  0
VERTEX
  8
0
 10
183.327353
 20
115.898625
 42
0.000000
  0
VERTEX
  8
0
 10
142.827353
 20
115.961677
 42
0.000000
  0
VERTEX
  8
0
 10
142.827353
 20
118.918969
 42
-0.007890
  0
VERTEX
  8
0
 10
142.845470
 20
120.067007
 42
-0.011840
  0
VERTEX
  8
0
 10
142.900790
 20
121.067506
 42
-0.006828
  0
VERTEX
  8
0
 10
142.977737
 20
121.896342
 42
-0.197496
  0
VERTEX
  8
0
 10
143.077353
 20
122.080345
 42
-0.167007
  0
VERTEX
  8
0
 10
143.310449
 20
122.166400
 42
-0.000052
  0
VERTEX
  8
0
 10
153.388290
 20
122.394174
 42
-0.000895
  0
VERTEX
  8
0
 10
164.581253
 20
122.625937
 42
-0.000543
  0
VERTEX
  8
0
 10
177.827353
 20
122.862114
 42
0.000326
  0
VERTEX
  8
0
 10
191.460519
 20
123.099293
 42
0.000431
  0
VERTEX
  8
0
 10
203.882040
 20
123.334210
 42
0.000308
  0
VERTEX
  8
0
 10
214.296570
 20
123.546577
 42
0.004232
  0
VERTEX
  8
0
 10
218.077353
 20
123.658030
 42
0.000000
  0
VERTEX
  8
0
 10
223.827353
 20
123.876262
 42
0.000000
  0
SEQEND
  0
POLYLINE
  8
0
 66
1
 70
1
  0
VERTEX
  8
0
 10
308.827353
 20
119.876262
 42
0.000000
  0
VERTEX
  8
0
 10
308.827353
 20
115.876262
 42
0.000000
  0
VERTEX
  8
0
 10
269.409140
 20
115.876262
 42
-0.001439
  0
VERTEX
  8
0
 10
254.185482
 20
115.920088
 42
-0.002261
  0
VERTEX
  8
0
 10
241.105378
 20
116.054564
 42
-0.000571
  0
VERTEX
  8
0
 10
229.678782
 20
116.236773
 42
-0.087553
  0
VERTEX
  8
0
 10
228.409140
 20
116.483250
 42
-0.216079
  0
VERTEX
  8
0
 10
227.310963
 20
117.596073
 42
-0.076123
  0
VERTEX
  8
0
 10
226.852157
 20
119.845482
 42
-0.077364
  0
VERTEX
  8
0
 10
227.089673
 20
122.095623
 42
-0.236170
  0
VERTEX
  8
0
 10
228.077353
 20
123.213981
 42
-0.092204
  0
VERTEX
  8
0
 10
229.097707
 20
123.420433
 42
-0.000381
  0
VERTEX
  8
0
 10
240.636728
 20
123.593394
 42
-0.001879
  0
VERTEX
  8
0
 10
253.749435
 20
123.730667
 42
-0.001181
  0
VERTEX
  8
0
 10
269.077353
 20
123.797314
 42
0.000000
  0
VERTEX
  8
0
 10
308.827353
 20
123.876262
 42
0.000000
  0
SEQEND
  0
POLYLINE
  8
0
 66
1
 70
1
  0
VERTEX
  8
0
 10
394.289660
 20
120.126284
 42
0.000000
  0
VERTEX
  8
0
 10
394.251968
 20
116.376262
 42
0.000000
  0
VERTEX
  8
0
 10
354.289660
 20
116.637022
 42
0.000044
  0
VERTEX
  8
0
 10
338.880314
 20
116.736206
 42
0.000070
  0
VERTEX
  8
0
 10
325.699093
 20
116.818023
 42
0.000013
  0
VERTEX
  8
0
 10
314.063227
 20
116.888301
 42
0.003655
  0
VERTEX
  8
0
 10
313.077353
 20
116.887022
 42
-0.226047
  0
VERTEX
  8
0
 10
312.564574
 20
117.125935
 42
-0.086757
  0
VERTEX
  8
0
 10
312.165870
 20
117.827024
 42
-0.057814
  0
VERTEX
  8
0
 10
311.909089
 20
118.931164
 42
-0.028258
  0
VERTEX
  8
0
 10
311.827353
 20
120.376262
 42
0.000000
  0
VERTEX
  8
0
 10
311.827353
 20
123.876262
 42
0.000000
  0
VERTEX
  8
0
 10
353.077353
 20
123.876284
 42
0.000000
  0
VERTEX
  8
0
 10
394.327353
 20
123.876306
 42
0.000000
  0
SEQEND
  0
POLYLINE
  8
0
 66
1
 70
1
  0
VERTEX
  8
0
 10
478.827353
 20
119.876262
 42
0.000000
  0
VERTEX
  8
0
 10
478.827353
 20
115.876262
 42
0.000000
  0
VERTEX
  8
0
 10
439.077353
 20
115.891574
 42
-0.001884
  0
VERTEX
  8
0
 10
423.748651
 20
115.955224
 42
-0.002995
  0
VERTEX
  8
0
 10
410.633278
 20
116.137672
 42
-0.000671
  0
VERTEX
  8
0
 10
399.142007
 20
116.381823
 42
-0.136599
  0
VERTEX
  8
0
 10
398.065608
 20
116.707850
 42
-0.134549
  0
VERTEX
  8
0
 10
397.563927
 20
117.259843
 42
-0.078815
  0
VERTEX
  8
0
 10
397.287149
 20
118.115376
 42
-0.058439
  0
VERTEX
  8
0
 10
397.242561
 20
119.262888
 42
-0.029880
  0
VERTEX
  8
0
 10
397.440608
 20
120.692537
 42
0.000000
  0
VERTEX
  8
0
 10
398.077353
 20
123.876262
 42
0.000000
  0
VERTEX
  8
0
 10
438.452353
 20
123.876262
 42
0.000000
  0
VERTEX
  8
0
 10
478.827353
 20
123.876262
 42
0.000000
  0
SEQEND
  0
POLYLINE
  8
0
 66
1
 70
1
  0
VERTEX
  8
0
 10
545.667046
 20
123.218454
 42
0.000000
  0
VERTEX
  8
0
 10
563.827353
 20
122.560647
 42
0.000000
  0
VERTEX
  8
0
 10
563.827353
 20
119.218454
 42
0.000000
  0
VERTEX
  8
0
 10
563.827353
 20
115.876262
 42
0.000000
  0
VERTEX
  8
0
 10
525.952353
 20
115.876262
 42
-0.001537
  0
VERTEX
  8
0
 10
511.212530
 20
115.921580
 42
-0.002273
  0
VERTEX
  8
0
 10
498.285165
 20
116.059855
 42
-0.001020
  0
VERTEX
  8
0
 10
487.257787
 20
116.250463
 42
-0.044547
  0
VERTEX
  8
0
 10
484.952353
 20
116.501262
 42
-0.034086
  0
VERTEX
  8
0
 10
483.220076
 20
116.972378
 42
-0.144469
  0
VERTEX
  8
0
 10
482.355131
 20
117.590706
 42
-0.137102
  0
VERTEX
  8
0
 10
481.939910
 20
118.598839
 42
-0.029557
  0
VERTEX
  8
0
 10
481.827353
 20
120.501262
 42
0.000000
  0
VERTEX
  8
0
 10
481.827353
 20
123.876262
 42
0.000000
  0
VERTEX
  8
0
 10
504.667046
 20
123.876262
 42
-0.002372
  0
VERTEX
  8
0
 10
514.736622
 20
123.828498
 42
-0.001639
  0
VERTEX
  8
0
 10
526.132169
 20
123.683031
 42
-0.001653
  0
VERTEX
  8
0
 10
537.085262
 20
123.471086
 42
-0.003388
  0
SEQEND
  0
POLYLINE
  8
0
 66
1
 70
1
  0
VERTEX
  8
0
 10
139.827353
 20
119.527395
 42
0.000000
  0
VERTEX
  8
0
 10
139.827353
 20
116.178529
 42
0.000000
  0
VERTEX
  8
0
 10
124.577353
 20
115.498314
 42
-0.005388
  0
VERTEX
  8
0
 10
117.019619
 20
115.242774
 42
-0.002082
  0
VERTEX
  8
0
 10
106.536728
 20
115.045063
 42
-0.002061
  0
VERTEX
  8
0
 10
95.170465
 20
114.924903
 42
-0.002546
  0
VERTEX
  8
0
 10
84.577353
 20
114.910527
 42
0.000000
  0
VERTEX
  8
0
 10
59.827353
 20
115.002956
 42
0.000000
  0
VERTEX
  8
0
 10
59.827353
 20
117.939609
 42
-0.007949
  0
VERTEX
  8
0
 10
59.845462
 20
119.078673
 42
-0.012006
  0
VERTEX
  8
0
 10
59.900790
 20
120.069127
 42
-0.006838
  0
VERTEX
  8
0
 10
59.977691
 20
120.889272
 42
-0.206983
  0
VERTEX
  8
0
 10
60.077353
 20
121.065221
 42
-0.157099
  0
VERTEX
  8
0
 10
60.306597
 20
121.145174
 42
-0.000051
  0
VERTEX
  8
0
 10
69.947665
 20
121.374891
 42
-0.000863
  0
VERTEX
  8
0
 10
80.656428
 20
121.610467
 42
-0.000523
  0
VERTEX
  8
0
 10
93.327353
 20
121.854070
 42
0.000246
  0
VERTEX
  8
0
 10
106.458001
 20
122.099231
 42
0.000310
  0
VERTEX
  8
0
 10
118.616415
 20
122.339767
 42
0.000246
  0
VERTEX
  8
0
 10
128.817740
 20
122.552935
 42
0.002472
  0
VERTEX
  8
0
 10
133.077353
 20
122.665110
 42
0.000000
  0
VERTEX
  8
0
 10
139.827353
 20
122.876262
 42
0.000000
  0
SEQEND
  0
POLYLINE
  8
0
 66
1
 70
1
  0
VERTEX
  8
0
 10
629.263949
 20
121.990813
 42
0.000000
  0
VERTEX
  8
0
 10
649.200545
 20
121.376262
 42
0.000000
  0
VERTEX
  8
0
 10
649.569498
 20
118.126262
 42
0.000000
  0
VERTEX
  8
0
 10
649.938450
 20
114.876262
 42
0.000000
  0
VERTEX
  8
0
 10
630.132902
 20
114.878714
 42
-0.002546
  0
VERTEX
  8
0
 10
620.984128
 20
114.926441
 42
-0.001388
  0
VERTEX
  8
0
 10
609.756170
 20
115.073381
 42
-0.001383
  0
VERTEX
  8
0
 10
598.343717
 20
115.286014
 42
-0.002198
  0
VERTEX
  8
0
 10
588.577353
 20
115.537966
 42
0.000000
  0
VERTEX
  8
0
 10
566.827353
 20
116.194765
 42
0.000000
  0
VERTEX
  8
0
 10
566.827353
 20
119.535513
 42
0.000000
  0
VERTEX
  8
0
 10
566.827353
 20
122.876262
 42
0.000000
  0
VERTEX
  8
0
 10
588.077353
 20
122.740813
 42
-0.001832
  0
VERTEX
  8
0
 10
597.660054
 20
122.644628
 42
-0.001127
  0
VERTEX
  8
0
 10
608.941540
 20
122.464628
 42
-0.001130
  0
VERTEX
  8
0
 10
620.098264
 20
122.236248
 42
-0.002022
  0
SEQEND
  0
POLYLINE
  8
0
 66
1
 70
1
  0
VERTEX
  8
0
 10
724.577353
 20
120.259673
 42
-0.004472
  0
VERTEX
  8
0
 10
730.033878
 20
119.838278
 42
-0.075239
  0
VERTEX
  8
0
 10
731.788695
 20
119.415882
 42
-0.222386
  0
VERTEX
  8
0
 10
732.566876
 20
118.575081
 42
-0.077426
  0
VERTEX
  8
0
 10
732.827353
 20
116.903070
 42
-0.043279
  0
VERTEX
  8
0
 10
732.703742
 20
115.477661
 42
-0.124032
  0
VERTEX
  8
0
 10
732.301590
 20
114.576670
 42
-0.129945
  0
VERTEX
  8
0
 10
731.533881
 20
113.998198
 42
-0.049644
  0
VERTEX
  8
0
 10
730.240343
 20
113.614878
 42
-0.048610
  0
VERTEX
  8
0
 10
728.330668
 20
113.439191
 42
-0.001089
  0
VERTEX
  8
0
 10
719.112264
 20
113.509090
 42
-0.002449
  0
VERTEX
  8
0
 10
708.310874
 20
113.667448
 42
-0.001653
  0
VERTEX
  8
0
 10
695.990343
 20
113.949208
 42
0.000332
  0
VERTEX
  8
0
 10
683.408080
 20
114.270214
 42
0.000422
  0
VERTEX
  8
0
 10
671.792419
 20
114.549017
 42
0.000330
  0
VERTEX
  8
0
 10
662.050267
 20
114.768190
 42
0.003495
  0
VERTEX
  8
0
 10
658.077353
 20
114.827169
 42
0.000000
  0
VERTEX
  8
0
 10
651.827353
 20
114.876262
 42
0.000000
  0
VERTEX
  8
0
 10
651.827353
 20
118.458896
 42
0.000000
  0
VERTEX
  8
0
 10
651.827353
 20
122.041530
 42
0.000000
  0
VERTEX
  8
0
 10
684.077353
 20
121.432076
 42
-0.001151
  0
VERTEX
  8
0
 10
697.029732
 20
121.157482
 42
-0.001360
  0
VERTEX
  8
0
 10
709.277353
 20
120.836283
 42
-0.001185
  0
VERTEX
  8
0
 10
719.615649
 20
120.512473
 42
-0.008612
  0
SEQEND
  0
POLYLINE
  8
0
 66
1
 70
1
  0
VERTEX
  8
0
 10
56.827353
 20
118.028389
 42
0.000000
  0
VERTEX
  8
0
 10
56.827353
 20
115.180516
 42
0.000000
  0
VERTEX
  8
0
 10
43.577353
 20
114.597074
 42
-0.002816
  0
VERTEX
  8
0
 10
31.452144
 20
114.131572
 42
-0.031307
  0
VERTEX
  8
0
 10
26.613125
 20
114.276072
 42
-0.102229
  0
VERTEX
  8
0
 10
24.247014
 20
114.998142
 42
-0.233988
  0
VERTEX
  8
0
 10
23.204711
 20
116.485811
 42
-0.251374
  0
VERTEX
  8
0
 10
23.948768
 20
118.581890
 42
-0.128700
  0
VERTEX
  8
0
 10
26.493494
 20
119.910454
 42
-0.047436
  0
VERTEX
  8
0
 10
31.764424
 20
120.601514
 42
-0.007744
  0
VERTEX
  8
0
 10
42.077353
 20
120.808581
 42
0.000000
  0
VERTEX
  8
0
 10
56.827353
 20
120.876262
 42
0.000000
  0
SEQEND
  0
POLYLINE
  8
0
 66
1
 70
1
  0
VERTEX
  8
0
 10
769.042269
 20
118.061345
 42
-0.065312
  0
VERTEX
  8
0
 10
769.564543
 20
117.381352
 42
-0.118883
  0
VERTEX
  8
0
 10
769.762295
 20
116.713471
 42
-0.107273
  0
VERTEX
  8
0
 10
769.642229
 20
115.981203
 42
-0.046843
  0
VERTEX
  8
0
 10
769.194117
 20
115.098738
 42
-0.152935
  0
VERTEX
  8
0
 10
768.131407
 20
114.196715
 42
-0.059416
  0
VERTEX
  8
0
 10
766.257622
 20
113.654685
 42
-0.029690
  0
VERTEX
  8
0
 10
763.101246
 20
113.326735
 42
-0.005394
  0
VERTEX
  8
0
 10
757.216593
 20
113.130249
 42
-0.005532
  0
VERTEX
  8
0
 10
752.662536
 20
113.077762
 42
-0.005102
  0
VERTEX
  8
0
 10
747.983880
 20
113.123344
 42
-0.005099
  0
VERTEX
  8
0
 10
743.816162
 20
113.249015
 42
-0.016857
  0
VERTEX
  8
0
 10
741.077353
 20
113.452206
 42
-0.010372
  0
VERTEX
  8
0
 10
737.785201
 20
113.877618
 42
-0.113946
  0
VERTEX
  8
0
 10
736.554624
 20
114.363661
 42
-0.200442
  0
VERTEX
  8
0
 10
735.988797
 20
115.242404
 42
-0.044138
  0
VERTEX
  8
0
 10
735.827353
 20
117.067694
 42
0.000000
  0
VERTEX
  8
0
 10
735.827353
 20
120.115215
 42
0.000000
  0
VERTEX
  8
0
 10
751.814746
 20
119.708345
 42
-0.004668
  0
VERTEX
  8
0
 10
759.079921
 20
119.455558
 42
-0.012800
  0
VERTEX
  8
0
 10
764.200685
 20
119.097984
 42
-0.012156
  0
VERTEX
  8
0
 10
767.849097
 20
118.659452
 42
-0.161755
  0
SEQEND
  0
POLYLINE
  8
0
 66
1
 70
1
  0
VERTEX
  8
0
 10
307.411810
 20
110.126262
 42
-0.197672
  0
VERTEX
  8
0
 10
305.293516
 20
109.241039
 42
-0.000394
  0
VERTEX
  8
0
 10
268.165394
 20
109.065193
 42
-0.000279
  0
VERTEX
  8
0
 10
230.711615
 20
108.938254
 42
-0.415043
  0
VERTEX
  8
0
 10
229.827353
 20
109.820016
 42
-0.402831
  0
VERTEX
  8
0
 10
230.314367
 20
110.326414
 42
-0.001406
  0
VERTEX
  8
0
 10
239.520926
 20
110.659900
 42
-0.004943
  0
VERTEX
  8
0
 10
251.420229
 20
110.939693
 42
-0.001717
  0
VERTEX
  8
0
 10
268.577353
 20
111.114518
 42
-0.000611
  0
VERTEX
  8
0
 10
283.464531
 20
111.196885
 42
-0.001003
  0
VERTEX
  8
0
 10
296.066936
 20
111.225937
 42
-0.000078
  0
VERTEX
  8
0
 10
307.378295
 20
111.227564
 42
-0.135930
  0
VERTEX
  8
0
 10
307.744020
 20
111.126262
 42
-0.233164
  0
VERTEX
  8
0
 10
307.843454
 20
110.971890
 42
-0.109138
  0
VERTEX
  8
0
 10
307.818308
 20
110.729387
 42
-0.073070
  0
VERTEX
  8
0
 10
307.668391
 20
110.431767
 42
-0.043063
  0
SEQEND
  0
POLYLINE
  8
0
 66
1
 70
1
  0
VERTEX
  8
0
 10
393.577739
 20
110.626262
 42
-0.317783
  0
VERTEX
  8
0
 10
392.056058
 20
109.507564
 42
-0.000846
  0
VERTEX
  8
0
 10
364.702897
 20
109.046038
 42
-0.005005
  0
VERTEX
  8
0
 10
339.736470
 20
108.916976
 42
-0.018012
  0
VERTEX
  8
0
 10
323.827353
 20
109.567406
 42
-0.260969
  0
VERTEX
  8
0
 10
323.254014
 20
109.949160
 42
-0.545623
  0
VERTEX
  8
0
 10
323.467730
 20
110.317164
 42
-0.007351
  0
VERTEX
  8
0
 10
332.353872
 20
110.592739
 42
-0.000800
  0
VERTEX
  8
0
 10
352.827353
 20
110.893720
 42
0.000525
  0
VERTEX
  8
0
 10
368.030696
 20
111.108854
 42
0.000848
  0
VERTEX
  8
0
 10
380.969020
 20
111.327484
 42
0.000113
  0
VERTEX
  8
0
 10
392.481756
 20
111.544172
 42
0.063355
  0
VERTEX
  8
0
 10
393.160686
 20
111.643720
 42
-0.167487
  0
VERTEX
  8
0
 10
393.441273
 20
111.626930
 42
-0.200141
  0
VERTEX
  8
0
 10
393.626946
 20
111.440765
 42
-0.123734
  0
VERTEX
  8
0
 10
393.677533
 20
111.088904
 42
-0.054566
  0
SEQEND
  0
POLYLINE
  8
0
 66
1
 70
1
  0
VERTEX
  8
0
 10
138.827353
 20
109.876262
 42
-0.385810
  0
VERTEX
  8
0
 10
138.424513
 20
109.431901
 42
-0.007078
  0
VERTEX
  8
0
 10
134.992755
 20
109.143697
 42
-0.012148
  0
VERTEX
  8
0
 10
130.489104
 20
108.939385
 42
-0.005260
  0
VERTEX
  8
0
 10
124.488960
 20
108.876262
 42
0.003081
  0
VERTEX
  8
0
 10
117.405112
 20
108.832610
 42
0.001207
  0
VERTEX
  8
0
 10
107.632185
 20
108.688568
 42
0.001194
  0
VERTEX
  8
0
 10
97.061294
 20
108.481982
 42
0.001488
  0
VERTEX
  8
0
 10
87.238960
 20
108.237305
 42
-0.003380
  0
VERTEX
  8
0
 10
78.479311
 20
108.052267
 42
-0.006025
  0
VERTEX
  8
0
 10
71.270145
 20
108.035604
 42
-0.002064
  0
VERTEX
  8
0
 10
65.267376
 20
108.118852
 42
-0.649666
  0
VERTEX
  8
0
 10
65.126040
 20
108.452660
 42
-0.195665
  0
VERTEX
  8
0
 10
65.896780
 20
108.808554
 42
-0.000808
  0
VERTEX
  8
0
 10
75.442999
 20
109.233884
 42
-0.003802
  0
VERTEX
  8
0
 10
86.340372
 20
109.618770
 42
-0.002366
  0
VERTEX
  8
0
 10
99.126040
 20
109.912477
 42
0.000336
  0
VERTEX
  8
0
 10
112.083047
 20
110.157483
 42
0.000486
  0
VERTEX
  8
0
 10
123.529155
 20
110.392738
 42
0.000245
  0
VERTEX
  8
0
 10
133.246221
 20
110.606669
 42
0.008141
  0
VERTEX
  8
0
 10
135.577353
 20
110.697123
 42
-0.029097
  0
VERTEX
  8
0
 10
136.822699
 20
110.693245
 42
-0.046561
  0
VERTEX
  8
0
 10
137.872665
 20
110.529889
 42
-0.060130
  0
VERTEX
  8
0
 10
138.603385
 20
110.248558
 42
-0.277611
  0
SEQEND
  0
POLYLINE
  8
0
 66
1
 70
1
  0
VERTEX
  8
0
 10
222.827353
 20
109.893435
 42
-0.404801
  0
VERTEX
  8
0
 10
222.351425
 20
109.401909
 42
-0.001371
  0
VERTEX
  8
0
 10
213.237743
 20
109.132953
 42
-0.004930
  0
VERTEX
  8
0
 10
201.532529
 20
108.935090
 42
-0.001761
  0
VERTEX
  8
0
 10
184.827353
 20
108.876262
 42
-0.001959
  0
VERTEX
  8
0
 10
169.249765
 20
108.937306
 42
-0.004196
  0
VERTEX
  8
0
 10
157.228847
 20
109.132418
 42
-0.000825
  0
VERTEX
  8
0
 10
147.232854
 20
109.395099
 42
-0.406058
  0
VERTEX
  8
0
 10
146.827353
 20
109.812084
 42
-0.405445
  0
VERTEX
  8
0
 10
147.231890
 20
110.228957
 42
-0.000818
  0
VERTEX
  8
0
 10
157.250579
 20
110.513529
 42
-0.004186
  0
VERTEX
  8
0
 10
169.279132
 20
110.734745
 42
-0.001969
  0
VERTEX
  8
0
 10
184.827353
 20
110.829257
 42
-0.001752
  0
VERTEX
  8
0
 10
201.561167
 20
110.806441
 42
-0.004939
  0
VERTEX
  8
0
 10
213.257737
 20
110.633964
 42
-0.001382
  0
VERTEX
  8
0
 10
222.350506
 20
110.384881
 42
-0.405410
  0
SEQEND
  0
POLYLINE
  8
0
 66
1
 70
1
  0
VERTEX
  8
0
 10
477.907874
 20
109.947188
 42
-0.141052
  0
VERTEX
  8
0
 10
474.683181
 20
109.005810
 42
-0.000596
  0
VERTEX
  8
0
 10
437.656208
 20
108.910007
 42
-0.000376
  0
VERTEX
  8
0
 10
400.056452
 20
108.885838
 42
-0.259904
  0
VERTEX
  8
0
 10
398.352120
 20
109.836188
 42
-0.576446
  0
VERTEX
  8
0
 10
398.629909
 20
110.354157
 42
-0.001795
  0
VERTEX
  8
0
 10
407.768580
 20
110.620147
 42
-0.004948
  0
VERTEX
  8
0
 10
420.028122
 20
110.811562
 42
-0.001523
  0
VERTEX
  8
0
 10
438.518336
 20
110.860949
 42
-0.001763
  0
VERTEX
  8
0
 10
455.116146
 20
110.796209
 42
-0.003942
  0
VERTEX
  8
0
 10
467.729442
 20
110.603086
 42
-0.001360
  0
VERTEX
  8
0
 10
477.799510
 20
110.342071
 42
-0.740150
  0
SEQEND
  0
POLYLINE
  8
0
 66
1
 70
1
  0
VERTEX
  8
0
 10
545.327353
 20
109.930030
 42
-0.005901
  0
VERTEX
  8
0
 10
552.554751
 20
109.564854
 42
-0.950448
  0
VERTEX
  8
0
 10
552.552045
 20
109.329247
 42
-0.008311
  0
VERTEX
  8
0
 10
545.699504
 20
109.173713
 42
-0.000409
  0
VERTEX
  8
0
 10
523.077353
 20
109.054840
 42
-0.001676
  0
VERTEX
  8
0
 10
505.540224
 20
109.035827
 42
-0.004534
  0
VERTEX
  8
0
 10
493.095208
 20
109.176919
 42
-0.001132
  0
VERTEX
  8
0
 10
483.292699
 20
109.399167
 42
-0.406930
  0
VERTEX
  8
0
 10
482.827353
 20
109.876262
 42
-0.412952
  0
VERTEX
  8
0
 10
483.642567
 20
110.694995
 42
-0.000862
  0
VERTEX
  8
0
 10
503.309894
 20
110.745822
 42
-0.005131
  0
VERTEX
  8
0
 10
524.055427
 20
110.550767
 42
-0.004754
  0
SEQEND
  0
POLYLINE
  8
0
 66
1
 70
1
  0
VERTEX
  8
0
 10
643.691911
 20
108.294281
 42
-0.653131
  0
VERTEX
  8
0
 10
643.572804
 20
108.020339
 42
-0.000466
  0
VERTEX
  8
0
 10
633.125067
 20
107.993347
 42
-0.002892
  0
VERTEX
  8
0
 10
621.163658
 20
108.042791
 42
-0.001689
  0
VERTEX
  8
0
 10
606.827353
 20
108.233420
 42
0.000009
  0
VERTEX
  8
0
 10
592.396615
 20
108.473791
 42
0.000015
  0
VERTEX
  8
0
 10
580.122665
 20
108.677635
 42
0.000002
  0
VERTEX
  8
0
 10
569.178643
 20
108.859018
 42
0.001225
  0
VERTEX
  8
0
 10
568.577353
 20
108.867509
 42
-0.098705
  0
VERTEX
  8
0
 10
568.291041
 20
108.928068
 42
-0.096647
  0
VERTEX
  8
0
 10
568.047404
 20
109.094003
 42
-0.096650
  0
VERTEX
  8
0
 10
567.884022
 20
109.339350
 42
-0.098719
  0
VERTEX
  8
0
 10
567.826463
 20
109.626262
 42
-0.419511
  0
VERTEX
  8
0
 10
568.510965
 20
110.300115
 42
-0.000172
  0
VERTEX
  8
0
 10
605.429962
 20
109.664654
 42
-0.000238
  0
VERTEX
  8
0
 10
642.109362
 20
109.003180
 42
-0.204083
  0
SEQEND
  0
POLYLINE
  8
0
 66
1
 70
1
  0
VERTEX
  8
0
 10
664.327353
 20
108.375950
 42
-0.786234
  0
VERTEX
  8
0
 10
664.314815
 20
108.238743
 42
-0.016781
  0
VERTEX
  8
0
 10
663.197665
 20
108.111367
 42
-0.011524
  0
VERTEX
  8
0
 10
661.408947
 20
108.009437
 42
-0.005312
  0
VERTEX
  8
0
 10
659.077353
 20
107.955209
 42
-0.012820
  0
VERTEX
  8
0
 10
656.681162
 20
107.986379
 42
-0.021155
  0
VERTEX
  8
0
 10
654.663290
 20
108.150082
 42
-0.016586
  0
VERTEX
  8
0
 10
653.102751
 20
108.396198
 42
-0.359712
  0
VERTEX
  8
0
 10
652.827353
 20
108.729469
 42
-0.415113
  0
VERTEX
  8
0
 10
653.329040
 20
109.229618
 42
-0.006915
  0
VERTEX
  8
0
 10
657.652432
 20
109.156540
 42
-0.014687
  0
VERTEX
  8
0
 10
661.840150
 20
108.904544
 42
-0.060040
  0
SEQEND
  0
POLYLINE
  8
0
 66
1
 70
1
  0
VERTEX
  8
0
 10
222.827353
 20
90.876262
 42
0.000000
  0
VERTEX
  8
0
 10
222.827353
 20
83.876262
 42
0.000000
  0
VERTEX
  8
0
 10
181.779635
 20
83.876262
 42
0.000000
  0
VERTEX
  8
0
 10
140.731918
 20
83.876262
 42
0.000000
  0
VERTEX
  8
0
 10
141.029635
 20
90.126262
 42
0.000000
  0
VERTEX
  8
0
 10
141.327353
 20
96.376262
 42
0.000000
  0
VERTEX
  8
0
 10
176.827353
 20
96.895515
 42
0.000401
  0
VERTEX
  8
0
 10
190.807823
 20
97.111225
 42
0.000543
  0
VERTEX
  8
0
 10
203.441415
 20
97.330019
 42
0.000363
  0
VERTEX
  8
0
 10
214.047831
 20
97.532925
 42
0.006018
  0
VERTEX
  8
0
 10
217.577353
 20
97.645515
 42
0.000000
  0
VERTEX
  8
0
 10
222.827353
 20
97.876262
 42
0.000000
  0
SEQEND
  0
POLYLINE
  8
0
 66
1
 70
1
  0
VERTEX
  8
0
 10
307.910686
 20
97.463458
 42
-0.192326
  0
VERTEX
  8
0
 10
308.067598
 20
97.102477
 42
-0.004603
  0
VERTEX
  8
0
 10
308.106455
 20
95.236926
 42
-0.009432
  0
VERTEX
  8
0
 10
308.090379
 20
93.017815
 42
-0.006189
  0
VERTEX
  8
0
 10
307.992026
 20
90.463458
 42
0.000000
  0
VERTEX
  8
0
 10
307.656699
 20
83.876262
 42
0.000000
  0
VERTEX
  8
0
 10
267.742026
 20
83.876262
 42
-0.001278
  0
VERTEX
  8
0
 10
247.368289
 20
83.928326
 42
-0.006546
  0
VERTEX
  8
0
 10
236.060190
 20
84.134187
 42
-0.003897
  0
VERTEX
  8
0
 10
228.484131
 20
84.430481
 42
-0.396998
  0
VERTEX
  8
0
 10
227.812040
 20
85.126262
 42
0.066727
  0
VERTEX
  8
0
 10
227.745376
 20
85.581176
 42
0.405416
  0
VERTEX
  8
0
 10
227.558212
 20
85.688762
 42
0.167501
  0
VERTEX
  8
0
 10
227.267584
 20
85.498120
 42
0.021149
  0
VERTEX
  8
0
 10
226.827353
 20
84.876262
 42
-0.427288
  0
VERTEX
  8
0
 10
226.415007
 20
84.797195
 42
-0.193436
  0
VERTEX
  8
0
 10
226.084206
 20
85.312748
 42
-0.038825
  0
VERTEX
  8
0
 10
225.896516
 20
87.001057
 42
-0.007702
  0
VERTEX
  8
0
 10
225.842666
 20
90.042928
 42
-0.012494
  0
VERTEX
  8
0
 10
225.909741
 20
92.998724
 42
-0.030717
  0
VERTEX
  8
0
 10
226.146134
 20
95.157078
 42
-0.040141
  0
VERTEX
  8
0
 10
226.523443
 20
96.630172
 42
-0.217403
  0
VERTEX
  8
0
 10
227.077353
 20
97.213981
 42
-0.095225
  0
VERTEX
  8
0
 10
229.331117
 20
97.655961
 42
-0.000171
  0
VERTEX
  8
0
 10
267.828204
 20
97.787977
 42
-0.000090
  0
VERTEX
  8
0
 10
306.842444
 20
97.901326
 42
-0.198410
  0
SEQEND
  0
POLYLINE
  8
0
 66
1
 70
1
  0
VERTEX
  8
0
 10
393.827353
 20
90.856319
 42
0.000000
  0
VERTEX
  8
0
 10
393.827353
 20
83.836376
 42
0.000000
  0
VERTEX
  8
0
 10
352.327353
 20
83.898133
 42
0.000000
  0
VERTEX
  8
0
 10
310.827353
 20
83.959890
 42
0.000000
  0
VERTEX
  8
0
 10
310.827353
 20
90.251409
 42
-0.009858
  0
VERTEX
  8
0
 10
310.875836
 20
92.710177
 42
-0.014023
  0
VERTEX
  8
0
 10
311.023186
 20
94.890628
 42
-0.009968
  0
VERTEX
  8
0
 10
311.230493
 20
96.678225
 42
-0.163948
  0
VERTEX
  8
0
 10
311.494020
 20
97.209595
 42
-0.194375
  0
VERTEX
  8
0
 10
312.136116
 20
97.482156
 42
-0.000352
  0
VERTEX
  8
0
 10
323.959645
 20
97.680428
 42
-0.002487
  0
VERTEX
  8
0
 10
337.290890
 20
97.828257
 42
-0.001529
  0
VERTEX
  8
0
 10
352.994020
 20
97.876262
 42
0.000000
  0
VERTEX
  8
0
 10
393.827353
 20
97.876262
 42
0.000000
  0
SEQEND
  0
POLYLINE
  8
0
 66
1
 70
1
  0
VERTEX
  8
0
 10
478.623043
 20
90.626262
 42
0.000000
  0
VERTEX
  8
0
 10
478.918733
 20
83.876262
 42
0.000000
  0
VERTEX
  8
0
 10
437.873043
 20
83.876262
 42
0.000000
  0
VERTEX
  8
0
 10
396.827353
 20
83.876262
 42
0.000000
  0
VERTEX
  8
0
 10
396.827353
 20
90.209595
 42
-0.009957
  0
VERTEX
  8
0
 10
396.876655
 20
92.685182
 42
-0.014140
  0
VERTEX
  8
0
 10
397.026474
 20
94.881632
 42
-0.010115
  0
VERTEX
  8
0
 10
397.237332
 20
96.681626
 42
-0.163575
  0
VERTEX
  8
0
 10
397.505211
 20
97.220786
 42
-0.195862
  0
VERTEX
  8
0
 10
398.157313
 20
97.495393
 42
-0.000380
  0
VERTEX
  8
0
 10
409.755140
 20
97.622798
 42
-0.002592
  0
VERTEX
  8
0
 10
422.843176
 20
97.688777
 42
-0.001594
  0
VERTEX
  8
0
 10
438.255211
 20
97.637453
 42
0.000000
  0
VERTEX
  8
0
 10
478.327353
 20
97.376262
 42
0.000000
  0
SEQEND
  0
POLYLINE
  8
0
 66
1
 70
1
  0
VERTEX
  8
0
 10
548.577353
 20
96.878428
 42
0.000000
  0
VERTEX
  8
0
 10
564.827353
 20
96.876262
 42
0.000000
  0
VERTEX
  8
0
 10
564.827353
 20
90.483250
 42
-0.010620
  0
VERTEX
  8
0
 10
564.755986
 20
87.123527
 42
-0.050065
  0
VERTEX
  8
0
 10
564.482354
 20
85.216650
 42
-0.097971
  0
VERTEX
  8
0
 10
563.950081
 20
84.079809
 42
-0.142788
  0
VERTEX
  8
0
 10
563.077353
 20
83.410927
 42
-0.092345
  0
VERTEX
  8
0
 10
561.680275
 20
83.147879
 42
-0.000718
  0
VERTEX
  8
0
 10
550.164853
 20
83.142097
 42
-0.002611
  0
VERTEX
  8
0
 10
536.939925
 20
83.223518
 42
-0.001671
  0
VERTEX
  8
0
 10
521.577353
 20
83.449686
 42
0.000000
  0
VERTEX
  8
0
 10
481.827353
 20
84.167757
 42
0.000000
  0
VERTEX
  8
0
 10
481.827353
 20
90.355342
 42
-0.011252
  0
VERTEX
  8
0
 10
481.882003
 20
92.783512
 42
-0.015493
  0
VERTEX
  8
0
 10
482.047665
 20
94.959375
 42
-0.012102
  0
VERTEX
  8
0
 10
482.282156
 20
96.736733
 42
-0.151083
  0
VERTEX
  8
0
 10
482.577353
 20
97.339695
 42
-0.203662
  0
VERTEX
  8
0
 10
483.289735
 20
97.652538
 42
-0.001320
  0
VERTEX
  8
0
 10
490.303915
 20
97.717956
 42
-0.004964
  0
VERTEX
  8
0
 10
498.381373
 20
97.691773
 42
-0.003114
  0
VERTEX
  8
0
 10
507.827353
 20
97.508528
 42
0.001431
  0
VERTEX
  8
0
 10
518.397127
 20
97.267889
 42
0.001110
  0
VERTEX
  8
0
 10
529.903915
 20
97.064414
 42
0.001122
  0
VERTEX
  8
0
 10
540.639174
 20
96.922513
 42
0.002710
  0
SEQEND
  0
POLYLINE
  8
0
 66
1
 70
1
  0
VERTEX
  8
0
 10
138.827353
 20
90.935279
 42
-0.014658
  0
VERTEX
  8
0
 10
138.759384
 20
88.617360
 42
-0.020932
  0
VERTEX
  8
0
 10
138.552943
 20
86.569865
 42
-0.017567
  0
VERTEX
  8
0
 10
138.259933
 20
84.936227
 42
-0.203912
  0
VERTEX
  8
0
 10
137.893191
 20
84.416952
 42
-0.131732
  0
VERTEX
  8
0
 10
137.087943
 20
84.175235
 42
-0.000361
  0
VERTEX
  8
0
 10
125.610975
 20
83.842964
 42
-0.002146
  0
VERTEX
  8
0
 10
112.628681
 20
83.532252
 42
-0.001334
  0
VERTEX
  8
0
 10
97.393191
 20
83.273688
 42
0.000000
  0
VERTEX
  8
0
 10
57.827353
 20
82.707768
 42
0.000000
  0
VERTEX
  8
0
 10
57.842666
 20
88.042015
 42
-0.013234
  0
VERTEX
  8
0
 10
57.905220
 20
90.173592
 42
-0.016010
  0
VERTEX
  8
0
 10
58.080736
 20
92.166975
 42
-0.014700
  0
VERTEX
  8
0
 10
58.329201
 20
93.819491
 42
-0.097158
  0
VERTEX
  8
0
 10
58.631613
 20
94.593789
 42
-0.240183
  0
VERTEX
  8
0
 10
60.258975
 20
95.554528
 42
-0.005716
  0
VERTEX
  8
0
 10
69.330515
 20
96.012463
 42
-0.006699
  0
VERTEX
  8
0
 10
83.617163
 20
96.378399
 42
-0.001069
  0
VERTEX
  8
0
 10
111.577353
 20
96.660040
 42
0.000000
  0
VERTEX
  8
0
 10
138.827353
 20
96.876262
 42
0.000000
  0
SEQEND
  0
POLYLINE
  8
0
 66
1
 70
1
  0
VERTEX
  8
0
 10
649.328603
 20
95.707846
 42
-0.170591
  0
VERTEX
  8
0
 10
649.468995
 20
95.414760
 42
-0.003254
  0
VERTEX
  8
0
 10
649.643849
 20
93.711165
 42
-0.007499
  0
VERTEX
  8
0
 10
649.806673
 20
91.699753
 42
-0.004904
  0
VERTEX
  8
0
 10
649.936851
 20
89.376262
 42
0.000000
  0
VERTEX
  8
0
 10
650.214012
 20
83.376262
 42
0.000000
  0
VERTEX
  8
0
 10
609.020682
 20
83.195642
 42
0.000000
  0
VERTEX
  8
0
 10
567.827353
 20
83.015022
 42
0.000000
  0
VERTEX
  8
0
 10
567.827353
 20
90.101116
 42
0.000000
  0
VERTEX
  8
0
 10
567.827353
 20
97.187210
 42
0.000000
  0
VERTEX
  8
0
 10
608.412435
 20
96.613320
 42
-0.000754
  0
VERTEX
  8
0
 10
623.997393
 20
96.369427
 42
-0.001242
  0
VERTEX
  8
0
 10
637.172905
 20
96.110608
 42
-0.000089
  0
VERTEX
  8
0
 10
649.004171
 20
95.846668
 42
-0.193270
  0
SEQEND
  0
POLYLINE
  8
0
 66
1
 70
1
  0
VERTEX
  8
0
 10
55.827353
 20
90.958049
 42
-0.034478
  0
VERTEX
  8
0
 10
55.466086
 20
85.725180
 42
-0.249786
  0
VERTEX
  8
0
 10
54.034384
 20
83.750850
 42
-0.109208
  0
VERTEX
  8
0
 10
50.852777
 20
82.984801
 42
-0.004681
  0
VERTEX
  8
0
 10
39.259105
 20
82.876262
 42
0.000000
  0
VERTEX
  8
0
 10
23.904834
 20
82.876262
 42
0.000000
  0
VERTEX
  8
0
 10
22.366093
 20
88.057763
 42
-0.030247
  0
VERTEX
  8
0
 10
21.148982
 20
93.298463
 42
-0.332230
  0
VERTEX
  8
0
 10
22.075534
 20
95.105495
 42
-0.111386
  0
VERTEX
  8
0
 10
24.984353
 20
95.797724
 42
-0.002943
  0
VERTEX
  8
0
 10
38.327353
 20
95.876262
 42
0.000000
  0
VERTEX
  8
0
 10
55.827353
 20
95.876262
 42
0.000000
  0
SEQEND
  0
POLYLINE
  8
0
 66
1
 70
1
  0
VERTEX
  8
0
 10
715.667046
 20
95.218454
 42
0.000000
  0
VERTEX
  8
0
 10
733.827353
 20
94.560647
 42
0.000000
  0
VERTEX
  8
0
 10
733.827353
 20
88.218454
 42
0.000000
  0
VERTEX
  8
0
 10
733.827353
 20
81.876262
 42
0.000000
  0
VERTEX
  8
0
 10
715.077353
 20
81.878714
 42
-0.002653
  0
VERTEX
  8
0
 10
706.338241
 20
81.926226
 42
-0.001383
  0
VERTEX
  8
0
 10
695.446103
 20
82.073381
 42
-0.001376
  0
VERTEX
  8
0
 10
684.269631
 20
82.286069
 42
-0.002102
  0
VERTEX
  8
0
 10
674.577353
 20
82.537966
 42
0.000000
  0
VERTEX
  8
0
 10
652.827353
 20
83.194765
 42
0.000000
  0
VERTEX
  8
0
 10
652.827353
 20
89.535513
 42
0.000000
  0
VERTEX
  8
0
 10
652.827353
 20
95.876262
 42
0.000000
  0
VERTEX
  8
0
 10
675.167046
 20
95.876262
 42
-0.002416
  0
VERTEX
  8
0
 10
685.044430
 20
95.828543
 42
-0.001645
  0
VERTEX
  8
0
 10
696.279044
 20
95.683031
 42
-0.001657
  0
VERTEX
  8
0
 10
707.118124
 20
95.471045
 42
-0.003334
  0
SEQEND
  0
POLYLINE
  8
0
 66
1
 70
1
  0
VERTEX
  8
0
 10
20.389547
 20
91.396430
 42
-0.004254
  0
VERTEX
  8
0
 10
20.637887
 20
90.007565
 42
-0.005296
  0
VERTEX
  8
0
 10
20.844001
 20
88.712562
 42
-0.004346
  0
VERTEX
  8
0
 10
20.995853
 20
87.623590
 42
-0.039778
  0
VERTEX
  8
0
 10
21.019897
 20
87.146430
 42
0.065399
  0
VERTEX
  8
0
 10
21.057437
 20
86.777639
 42
0.026950
  0
VERTEX
  8
0
 10
21.199360
 20
86.294904
 42
0.026101
  0
VERTEX
  8
0
 10
21.409511
 20
85.786577
 42
0.030403
  0
VERTEX
  8
0
 10
21.662390
 20
85.329132
 42
-0.182032
  0
VERTEX
  8
0
 10
21.694061
 20
85.177310
 42
-0.574437
  0
VERTEX
  8
0
 10
21.619532
 20
85.148101
 42
-0.032557
  0
VERTEX
  8
0
 10
21.218446
 20
85.510230
 42
-0.007212
  0
VERTEX
  8
0
 10
20.582713
 20
86.183296
 42
-0.037266
  0
VERTEX
  8
0
 10
19.956059
 20
86.977597
 42
-0.048474
  0
VERTEX
  8
0
 10
19.514822
 20
87.791866
 42
-0.057130
  0
VERTEX
  8
0
 10
19.304314
 20
88.508844
 42
-0.183266
  0
VERTEX
  8
0
 10
19.397261
 20
88.989375
 42
0.167822
  0
VERTEX
  8
0
 10
19.713186
 20
90.395355
 42
0.098673
  0
VERTEX
  8
0
 10
19.184799
 20
92.055017
 42
0.092794
  0
VERTEX
  8
0
 10
18.016873
 20
93.470129
 42
0.126720
  0
VERTEX
  8
0
 10
16.530073
 20
94.176724
 42
-0.004032
  0
VERTEX
  8
0
 10
15.264152
 20
94.432833
 42
-0.576204
  0
VERTEX
  8
0
 10
15.225419
 20
94.550645
 42
-0.198464
  0
VERTEX
  8
0
 10
15.435708
 20
94.652518
 42
-0.002244
  0
VERTEX
  8
0
 10
17.032040
 20
94.740079
 42
-0.048784
  0
VERTEX
  8
0
 10
18.512623
 20
94.670170
 42
-0.161035
  0
VERTEX
  8
0
 10
19.374917
 20
94.238642
 42
-0.126037
  0
VERTEX
  8
0
 10
19.931681
 20
93.302862
 42
-0.025135
  0
SEQEND
  0
POLYLINE
  8
0
 66
1
 70
1
  0
VERTEX
  8
0
 10
771.487985
 20
91.929423
 42
-0.018795
  0
VERTEX
  8
0
 10
771.157199
 20
90.547710
 42
-0.009074
  0
VERTEX
  8
0
 10
770.635641
 20
88.804477
 42
-0.008985
  0
VERTEX
  8
0
 10
770.025627
 20
87.004956
 42
-0.012746
  0
VERTEX
  8
0
 10
769.414012
 20
85.429423
 42
0.000000
  0
VERTEX
  8
0
 10
767.929406
 20
81.876262
 42
0.000000
  0
VERTEX
  8
0
 10
752.378379
 20
81.876262
 42
0.000000
  0
VERTEX
  8
0
 10
736.827353
 20
81.876262
 42
0.000000
  0
VERTEX
  8
0
 10
736.827353
 20
85.251262
 42
0.014823
  0
VERTEX
  8
0
 10
736.782309
 20
86.770337
 42
0.009143
  0
VERTEX
  8
0
 10
736.643759
 20
88.552824
 42
0.009167
  0
VERTEX
  8
0
 10
736.442093
 20
90.311153
 42
0.016219
  0
VERTEX
  8
0
 10
736.202353
 20
91.751262
 42
0.000000
  0
VERTEX
  8
0
 10
735.577353
 20
94.876262
 42
0.000000
  0
VERTEX
  8
0
 10
753.827353
 20
94.876262
 42
0.000000
  0
VERTEX
  8
0
 10
772.077353
 20
94.876262
 42
0.000000
  0
SEQEND
  0
POLYLINE
  8
0
 66
1
 70
1
  0
VERTEX
  8
0
 10
777.180866
 20
88.658333
 42
0.008715
  0
VERTEX
  8
0
 10
776.169292
 20
84.458755
 42
0.041740
  0
VERTEX
  8
0
 10
775.836728
 20
82.019624
 42
0.397533
  0
VERTEX
  8
0
 10
776.208747
 20
81.582119
 42
0.283883
  0
VERTEX
  8
0
 10
776.827353
 20
81.876262
 42
-0.011718
  0
VERTEX
  8
0
 10
777.354204
 20
82.651054
 42
-0.212802
  0
VERTEX
  8
0
 10
777.606124
 20
82.798944
 42
-0.413627
  0
VERTEX
  8
0
 10
777.769512
 20
82.668725
 42
-0.025625
  0
VERTEX
  8
0
 10
777.812040
 20
81.986504
 42
-0.097806
  0
VERTEX
  8
0
 10
777.693855
 20
81.351369
 42
-0.042990
  0
VERTEX
  8
0
 10
777.308792
 20
80.583633
 42
-0.040365
  0
VERTEX
  8
0
 10
776.745798
 20
79.813908
 42
-0.043024
  0
VERTEX
  8
0
 10
776.077353
 20
79.162347
 42
0.008676
  0
VERTEX
  8
0
 10
775.383596
 20
78.573287
 42
0.128826
  0
VERTEX
  8
0
 10
775.206897
 20
78.311223
 42
0.631657
  0
VERTEX
  8
0
 10
775.293701
 20
78.225170
 42
0.025579
  0
VERTEX
  8
0
 10
775.827353
 20
78.448808
 42
-0.009470
  0
VERTEX
  8
0
 10
776.585703
 20
78.795729
 42
-0.339168
  0
VERTEX
  8
0
 10
776.761806
 20
78.751909
 42
-0.358556
  0
VERTEX
  8
0
 10
776.759056
 20
78.575891
 42
-0.009890
  0
VERTEX
  8
0
 10
776.215814
 20
77.961427
 42
-0.149639
  0
VERTEX
  8
0
 10
775.518435
 20
77.552832
 42
-0.157649
  0
VERTEX
  8
0
 10
774.727786
 20
77.616067
 42
-0.079151
  0
VERTEX
  8
0
 10
773.706986
 20
78.242634
 42
-0.018183
  0
VERTEX
  8
0
 10
772.215814
 20
79.617498
 42
0.000000
  0
VERTEX
  8
0
 10
769.327353
 20
82.481812
 42
0.000000
  0
VERTEX
  8
0
 10
771.307113
 20
88.179037
 42
-0.012140
  0
VERTEX
  8
0
 10
772.506717
 20
91.378463
 42
-0.074290
  0
VERTEX
  8
0
 10
773.397816
 20
92.894773
 42
-0.139096
  0
VERTEX
  8
0
 10
774.429704
 20
93.623315
 42
-0.084788
  0
VERTEX
  8
0
 10
775.910626
 20
93.876262
 42
0.000000
  0
VERTEX
  8
0
 10
778.534379
 20
93.876262
 42
0.000000
  0
SEQEND
  0
POLYLINE
  8
0
 66
1
 70
1
  0
VERTEX
  8
0
 10
306.827353
 20
77.877190
 42
-0.359334
  0
VERTEX
  8
0
 10
305.810968
 20
76.645539
 42
-0.035449
  0
VERTEX
  8
0
 10
301.709948
 20
76.150771
 42
-0.012098
  0
VERTEX
  8
0
 10
293.339931
 20
75.941460
 42
-0.000707
  0
VERTEX
  8
0
 10
267.827353
 20
75.956950
 42
-0.001123
  0
VERTEX
  8
0
 10
246.430738
 20
76.048276
 42
-0.007901
  0
VERTEX
  8
0
 10
236.013619
 20
76.280790
 42
-0.007406
  0
VERTEX
  8
0
 10
229.596903
 20
76.620747
 42
-0.394508
  0
VERTEX
  8
0
 10
228.827353
 20
77.444278
 42
-0.393021
  0
VERTEX
  8
0
 10
229.594578
 20
78.269572
 42
-0.007377
  0
VERTEX
  8
0
 10
236.003857
 20
78.642635
 42
-0.007936
  0
VERTEX
  8
0
 10
246.383510
 20
78.928318
 42
-0.001145
  0
VERTEX
  8
0
 10
267.577353
 20
79.126609
 42
0.000571
  0
VERTEX
  8
0
 10
282.453120
 20
79.248714
 42
0.000943
  0
VERTEX
  8
0
 10
295.017978
 20
79.389890
 42
0.000052
  0
VERTEX
  8
0
 10
306.334968
 20
79.539575
 42
0.189027
  0
VERTEX
  8
0
 10
306.577353
 20
79.638352
 42
-0.569925
  0
VERTEX
  8
0
 10
306.674421
 20
79.610923
 42
-0.029599
  0
VERTEX
  8
0
 10
306.753915
 20
79.219148
 42
-0.023490
  0
VERTEX
  8
0
 10
306.809683
 20
78.627872
 42
-0.011768
  0
SEQEND
  0
POLYLINE
  8
0
 66
1
 70
1
  0
VERTEX
  8
0
 10
221.827353
 20
77.449573
 42
-0.391172
  0
VERTEX
  8
0
 10
221.014062
 20
76.569083
 42
-0.009768
  0
VERTEX
  8
0
 10
215.080770
 20
76.214024
 42
-0.008569
  0
VERTEX
  8
0
 10
205.086367
 20
75.983131
 42
-0.001063
  0
VERTEX
  8
0
 10
183.327353
 20
75.899680
 42
-0.001080
  0
VERTEX
  8
0
 10
161.749448
 20
75.909411
 42
-0.008378
  0
VERTEX
  8
0
 10
151.671739
 20
76.104602
 42
-0.009040
  0
VERTEX
  8
0
 10
145.625775
 20
76.432623
 42
-0.393198
  0
VERTEX
  8
0
 10
144.827353
 20
77.290948
 42
-0.392141
  0
VERTEX
  8
0
 10
145.624706
 20
78.151278
 42
-0.008928
  0
VERTEX
  8
0
 10
151.698955
 20
78.504529
 42
-0.008366
  0
VERTEX
  8
0
 10
161.799884
 20
78.741987
 42
-0.001091
  0
VERTEX
  8
0
 10
183.327353
 20
78.840841
 42
-0.001053
  0
VERTEX
  8
0
 10
205.136499
 20
78.847499
 42
-0.008580
  0
VERTEX
  8
0
 10
215.107491
 20
78.658420
 42
-0.009890
  0
VERTEX
  8
0
 10
221.013055
 20
78.327952
 42
-0.392217
  0
SEQEND
  0
POLYLINE
  8
0
 66
1
 70
1
  0
VERTEX
  8
0
 10
392.827353
 20
77.442739
 42
-0.395750
  0
VERTEX
  8
0
 10
392.037981
 20
76.601625
 42
-0.007986
  0
VERTEX
  8
0
 10
385.691694
 20
76.300109
 42
-0.007971
  0
VERTEX
  8
0
 10
375.238581
 20
76.137446
 42
-0.001061
  0
VERTEX
  8
0
 10
353.160849
 20
76.192739
 42
-0.001339
  0
VERTEX
  8
0
 10
333.126202
 20
76.339076
 42
-0.006442
  0
VERTEX
  8
0
 10
321.723156
 20
76.599852
 42
-0.003784
  0
VERTEX
  8
0
 10
313.986786
 20
76.935165
 42
-0.308801
  0
VERTEX
  8
0
 10
313.077515
 20
77.626262
 42
-0.496571
  0
VERTEX
  8
0
 10
313.554695
 20
78.323852
 42
-0.004390
  0
VERTEX
  8
0
 10
320.929086
 20
78.621065
 42
-0.006641
  0
VERTEX
  8
0
 10
332.141251
 20
78.825381
 42
-0.001235
  0
VERTEX
  8
0
 10
352.744020
 20
78.876262
 42
-0.001061
  0
VERTEX
  8
0
 10
374.999142
 20
78.829056
 42
-0.007877
  0
VERTEX
  8
0
 10
385.586995
 20
78.617321
 42
-0.007725
  0
VERTEX
  8
0
 10
392.037784
 20
78.286766
 42
-0.394825
  0
SEQEND
  0
POLYLINE
  8
0
 66
1
 70
1
  0
VERTEX
  8
0
 10
477.562689
 20
77.582982
 42
-0.308630
  0
VERTEX
  8
0
 10
476.705180
 20
76.930885
 42
-0.003473
  0
VERTEX
  8
0
 10
469.097381
 20
76.592095
 42
-0.006455
  0
VERTEX
  8
0
 10
458.144957
 20
76.322110
 42
-0.001497
  0
VERTEX
  8
0
 10
439.718822
 20
76.161032
 42
-0.001482
  0
VERTEX
  8
0
 10
425.208337
 20
76.120642
 42
-0.002265
  0
VERTEX
  8
0
 10
412.622235
 20
76.179948
 42
-0.000784
  0
VERTEX
  8
0
 10
401.759647
 20
76.297377
 42
-0.060925
  0
VERTEX
  8
0
 10
400.052392
 20
76.527663
 42
-0.666157
  0
VERTEX
  8
0
 10
399.906154
 20
77.567508
 42
-0.119016
  0
VERTEX
  8
0
 10
402.645661
 20
78.409834
 42
-0.013799
  0
VERTEX
  8
0
 10
414.158237
 20
78.798956
 42
-0.001946
  0
VERTEX
  8
0
 10
437.896260
 20
78.853533
 42
-0.001300
  0
VERTEX
  8
0
 10
457.999665
 20
78.769254
 42
-0.006307
  0
VERTEX
  8
0
 10
469.403490
 20
78.547926
 42
-0.003629
  0
VERTEX
  8
0
 10
477.108556
 20
78.245129
 42
-0.497377
  0
SEQEND
  0
POLYLINE
  8
0
 66
1
 70
1
  0
VERTEX
  8
0
 10
534.124757
 20
78.216203
 42
-0.002462
  0
VERTEX
  8
0
 10
545.068958
 20
77.909903
 42
-0.004203
  0
VERTEX
  8
0
 10
554.205022
 20
77.532284
 42
-0.000824
  0
VERTEX
  8
0
 10
562.127092
 20
77.125034
 42
-0.569698
  0
VERTEX
  8
0
 10
562.289404
 20
76.814859
 42
-0.253612
  0
VERTEX
  8
0
 10
561.758291
 20
76.510432
 42
-0.000392
  0
VERTEX
  8
0
 10
550.362143
 20
76.249003
 42
-0.002873
  0
VERTEX
  8
0
 10
537.507606
 20
76.038084
 42
-0.001753
  0
VERTEX
  8
0
 10
522.329308
 20
75.929497
 42
-0.000968
  0
VERTEX
  8
0
 10
499.426542
 20
75.890297
 42
-0.008809
  0
VERTEX
  8
0
 10
489.444210
 20
76.068424
 42
-0.011468
  0
VERTEX
  8
0
 10
483.680438
 20
76.405390
 42
-0.390588
  0
VERTEX
  8
0
 10
482.827353
 20
77.330841
 42
-0.395489
  0
VERTEX
  8
0
 10
483.960543
 20
78.539405
 42
-0.011774
  0
VERTEX
  8
0
 10
491.521645
 20
78.848102
 42
-0.009054
  0
VERTEX
  8
0
 10
504.575493
 20
78.837016
 42
-0.001025
  0
SEQEND
  0
POLYLINE
  8
0
 66
1
 70
1
  0
VERTEX
  8
0
 10
52.827353
 20
76.861072
 42
-0.700766
  0
VERTEX
  8
0
 10
52.731215
 20
76.455106
 42
-0.022292
  0
VERTEX
  8
0
 10
50.319093
 20
76.283046
 42
-0.013660
  0
VERTEX
  8
0
 10
46.182796
 20
76.285878
 42
-0.003996
  0
VERTEX
  8
0
 10
39.827353
 20
76.514747
 42
-0.002210
  0
VERTEX
  8
0
 10
34.238814
 20
76.785494
 42
-0.003525
  0
VERTEX
  8
0
 10
29.464332
 20
77.071734
 42
-0.000801
  0
VERTEX
  8
0
 10
25.288106
 20
77.358391
 42
-0.162579
  0
VERTEX
  8
0
 10
24.910686
 20
77.514624
 42
-0.700223
  0
VERTEX
  8
0
 10
25.136709
 20
78.104761
 42
-0.001671
  0
VERTEX
  8
0
 10
37.986758
 20
77.846904
 42
-0.001945
  0
VERTEX
  8
0
 10
50.815705
 20
77.496631
 42
-0.138286
  0
SEQEND
  0
POLYLINE
  8
0
 66
1
 70
1
  0
VERTEX
  8
0
 10
136.827353
 20
76.966993
 42
-0.413267
  0
VERTEX
  8
0
 10
135.858684
 20
75.995189
 42
-0.000363
  0
VERTEX
  8
0
 10
99.897746
 20
75.905115
 42
-0.000426
  0
VERTEX
  8
0
 10
64.079876
 20
75.871924
 42
-0.259953
  0
VERTEX
  8
0
 10
62.353121
 20
76.834567
 42
-0.575089
  0
VERTEX
  8
0
 10
62.629472
 20
77.352388
 42
-0.002139
  0
VERTEX
  8
0
 10
70.974882
 20
77.623613
 42
-0.005398
  0
VERTEX
  8
0
 10
82.244909
 20
77.819909
 42
-0.001655
  0
VERTEX
  8
0
 10
99.268336
 20
77.876262
 42
-0.002057
  0
VERTEX
  8
0
 10
114.268786
 20
77.814536
 42
-0.003994
  0
VERTEX
  8
0
 10
126.250638
 20
77.620209
 42
-0.000702
  0
VERTEX
  8
0
 10
136.445731
 20
77.359066
 42
-0.406323
  0
SEQEND
  0
POLYLINE
  8
0
 66
1
 70
1
  0
VERTEX
  8
0
 10
633.409524
 20
77.126262
 42
-0.192014
  0
VERTEX
  8
0
 10
632.697290
 20
76.820746
 42
-0.000712
  0
VERTEX
  8
0
 10
623.504690
 20
76.596574
 42
-0.003540
  0
VERTEX
  8
0
 10
613.034073
 20
76.430315
 42
-0.002199
  0
VERTEX
  8
0
 10
600.745765
 20
76.376262
 42
-0.002202
  0
VERTEX
  8
0
 10
588.508716
 20
76.430160
 42
-0.003672
  0
VERTEX
  8
0
 10
578.206639
 20
76.596574
 42
-0.000543
  0
VERTEX
  8
0
 10
569.130189
 20
76.819725
 42
-0.405587
  0
VERTEX
  8
0
 10
568.830260
 20
77.126262
 42
-0.408031
  0
VERTEX
  8
0
 10
569.128122
 20
77.432861
 42
-0.000518
  0
VERTEX
  8
0
 10
578.424040
 20
77.655949
 42
-0.003588
  0
VERTEX
  8
0
 10
588.968217
 20
77.822365
 42
-0.002151
  0
VERTEX
  8
0
 10
601.494020
 20
77.876262
 42
-0.002154
  0
VERTEX
  8
0
 10
613.969140
 20
77.822531
 42
-0.003720
  0
VERTEX
  8
0
 10
624.344199
 20
77.655949
 42
-0.000788
  0
VERTEX
  8
0
 10
633.287899
 20
77.431669
 42
-0.658862
  0
SEQEND
  0
POLYLINE
  8
0
 66
1
 70
1
  0
VERTEX
  8
0
 10
221.627257
 20
59.542283
 42
0.000000
  0
VERTEX
  8
0
 10
221.927161
 20
53.876262
 42
0.000000
  0
VERTEX
  8
0
 10
180.877257
 20
53.876262
 42
0.000000
  0
VERTEX
  8
0
 10
139.827353
 20
53.876262
 42
0.000000
  0
VERTEX
  8
0
 10
139.827353
 20
59.360688
 42
0.000000
  0
VERTEX
  8
0
 10
139.827353
 20
64.845115
 42
0.000000
  0
VERTEX
  8
0
 10
168.077353
 20
65.164964
 42
-0.000875
  0
VERTEX
  8
0
 10
179.809764
 20
65.277255
 42
-0.000841
  0
VERTEX
  8
0
 10
191.700790
 20
65.350245
 42
-0.000832
  0
VERTEX
  8
0
 10
202.185970
 20
65.379532
 42
-0.003048
  0
VERTEX
  8
0
 10
208.827353
 20
65.346558
 42
0.000000
  0
VERTEX
  8
0
 10
221.327353
 20
65.208304
 42
0.000000
  0
SEQEND
  0
POLYLINE
  8
0
 66
1
 70
1
  0
VERTEX
  8
0
 10
307.627257
 20
60.126262
 42
0.000000
  0
VERTEX
  8
0
 10
307.327353
 20
54.376262
 42
0.000000
  0
VERTEX
  8
0
 10
266.077353
 20
54.157890
 42
0.000000
  0
VERTEX
  8
0
 10
224.827353
 20
53.939518
 42
0.000000
  0
VERTEX
  8
0
 10
224.827353
 20
59.334566
 42
-0.013197
  0
VERTEX
  8
0
 10
224.901129
 20
62.129274
 42
-0.059514
  0
VERTEX
  8
0
 10
225.179638
 20
63.735622
 42
-0.115304
  0
VERTEX
  8
0
 10
225.716446
 20
64.672837
 42
-0.142308
  0
VERTEX
  8
0
 10
226.577353
 20
65.186936
 42
-0.060086
  0
VERTEX
  8
0
 10
227.951757
 20
65.374432
 42
-0.000439
  0
VERTEX
  8
0
 10
239.504512
 20
65.543996
 42
-0.001659
  0
VERTEX
  8
0
 10
252.745569
 20
65.682763
 42
-0.001062
  0
VERTEX
  8
0
 10
268.127257
 20
65.760260
 42
0.000000
  0
VERTEX
  8
0
 10
307.927161
 20
65.876262
 42
0.000000
  0
SEQEND
  0
POLYLINE
  8
0
 66
1
 70
1
  0
VERTEX
  8
0
 10
393.638403
 20
60.473010
 42
-0.018614
  0
VERTEX
  8
0
 10
393.695841
 20
58.275280
 42
-0.040409
  0
VERTEX
  8
0
 10
393.541038
 20
56.594967
 42
-0.055074
  0
VERTEX
  8
0
 10
393.193508
 20
55.398475
 42
-0.154438
  0
VERTEX
  8
0
 10
392.638403
 20
54.738322
 42
-0.141271
  0
VERTEX
  8
0
 10
390.243661
 20
54.038060
 42
-0.000326
  0
VERTEX
  8
0
 10
353.060978
 20
53.920977
 42
-0.000653
  0
VERTEX
  8
0
 10
316.968783
 20
53.877979
 42
-0.065450
  0
VERTEX
  8
0
 10
311.961565
 20
54.536827
 42
-0.059910
  0
VERTEX
  8
0
 10
310.661454
 20
55.057945
 42
-0.186138
  0
VERTEX
  8
0
 10
310.062295
 20
55.766643
 42
-0.104912
  0
VERTEX
  8
0
 10
309.911686
 20
56.967998
 42
-0.012969
  0
VERTEX
  8
0
 10
310.203802
 20
59.606102
 42
-0.009058
  0
VERTEX
  8
0
 10
310.478618
 20
61.372624
 42
-0.011096
  0
VERTEX
  8
0
 10
310.801737
 20
63.011709
 42
-0.009665
  0
VERTEX
  8
0
 10
311.128791
 20
64.370759
 42
-0.074660
  0
VERTEX
  8
0
 10
311.385505
 20
64.970353
 42
-0.254808
  0
VERTEX
  8
0
 10
312.096846
 20
65.375965
 42
-0.000765
  0
VERTEX
  8
0
 10
323.047553
 20
65.569782
 42
-0.003781
  0
VERTEX
  8
0
 10
336.080719
 20
65.681939
 42
-0.001866
  0
VERTEX
  8
0
 10
352.643268
 20
65.637423
 42
0.000000
  0
VERTEX
  8
0
 10
393.327353
 20
65.376262
 42
0.000000
  0
SEQEND
  0
POLYLINE
  8
0
 66
1
 70
1
  0
VERTEX
  8
0
 10
470.577353
 20
65.222050
 42
0.000000
  0
VERTEX
  8
0
 10
478.827353
 20
64.579827
 42
0.000000
  0
VERTEX
  8
0
 10
478.827353
 20
59.228044
 42
0.000000
  0
VERTEX
  8
0
 10
478.827353
 20
53.876262
 42
0.000000
  0
VERTEX
  8
0
 10
437.827353
 20
53.876262
 42
0.000000
  0
VERTEX
  8
0
 10
396.827353
 20
53.876262
 42
0.000000
  0
VERTEX
  8
0
 10
396.827353
 20
59.209595
 42
-0.011610
  0
VERTEX
  8
0
 10
396.875922
 20
61.301089
 42
-0.016057
  0
VERTEX
  8
0
 10
397.023186
 20
63.172095
 42
-0.012597
  0
VERTEX
  8
0
 10
397.231655
 20
64.697188
 42
-0.157369
  0
VERTEX
  8
0
 10
397.494020
 20
65.209595
 42
-0.198578
  0
VERTEX
  8
0
 10
398.993417
 20
65.831797
 42
-0.000279
  0
VERTEX
  8
0
 10
430.257493
 20
65.854588
 42
-0.001973
  0
VERTEX
  8
0
 10
458.247936
 20
65.748902
 42
-0.017493
  0
SEQEND
  0
POLYLINE
  8
0
 66
1
 70
1
  0
VERTEX
  8
0
 10
564.699393
 20
64.286701
 42
-0.188552
  0
VERTEX
  8
0
 10
564.852150
 20
63.997459
 42
-0.005254
  0
VERTEX
  8
0
 10
564.999734
 20
62.564941
 42
-0.010083
  0
VERTEX
  8
0
 10
565.123411
 20
60.849933
 42
-0.006672
  0
VERTEX
  8
0
 10
565.199393
 20
58.876416
 42
-0.012206
  0
VERTEX
  8
0
 10
565.201554
 20
55.911038
 42
-0.088484
  0
VERTEX
  8
0
 10
564.919201
 20
54.519500
 42
-0.165735
  0
VERTEX
  8
0
 10
564.242756
 20
53.724789
 42
-0.073013
  0
VERTEX
  8
0
 10
562.950527
 20
53.191550
 42
-0.059384
  0
VERTEX
  8
0
 10
561.262864
 20
52.976113
 42
-0.002379
  0
VERTEX
  8
0
 10
555.066961
 20
52.953933
 42
-0.004156
  0
VERTEX
  8
0
 10
547.715876
 20
53.023701
 42
-0.002926
  0
VERTEX
  8
0
 10
539.450527
 20
53.219251
 42
0.002003
  0
VERTEX
  8
0
 10
530.034735
 20
53.459413
 42
0.001309
  0
VERTEX
  8
0
 10
519.171348
 20
53.664503
 42
0.001316
  0
VERTEX
  8
0
 10
508.580291
 20
53.808838
 42
0.002519
  0
VERTEX
  8
0
 10
500.077353
 20
53.859491
 42
0.000000
  0
VERTEX
  8
0
 10
481.827353
 20
53.876262
 42
0.000000
  0
VERTEX
  8
0
 10
481.827353
 20
59.337329
 42
0.000000
  0
VERTEX
  8
0
 10
481.827353
 20
64.798396
 42
0.000000
  0
VERTEX
  8
0
 10
490.577353
 20
65.089334
 42
-0.010034
  0
VERTEX
  8
0
 10
502.520833
 20
65.246653
 42
-0.000983
  0
VERTEX
  8
0
 10
531.331260
 20
64.991334
 42
-0.000084
  0
VERTEX
  8
0
 10
563.779998
 20
64.634515
 42
-0.177068
  0
SEQEND
  0
POLYLINE
  8
0
 66
1
 70
1
  0
VERTEX
  8
0
 10
53.827353
 20
58.876262
 42
0.000000
  0
VERTEX
  8
0
 10
53.827353
 20
52.876262
 42
0.000000
  0
VERTEX
  8
0
 10
44.770755
 20
52.876262
 42
0.000000
  0
VERTEX
  8
0
 10
35.714158
 20
52.876262
 42
0.000000
  0
VERTEX
  8
0
 10
33.382841
 20
58.126262
 42
-0.011571
  0
VERTEX
  8
0
 10
32.522102
 20
60.192194
 42
-0.016830
  0
VERTEX
  8
0
 10
31.867634
 20
62.054387
 42
-0.012400
  0
VERTEX
  8
0
 10
31.423715
 20
63.601017
 42
-0.200659
  0
VERTEX
  8
0
 10
31.498455
 20
64.126262
 42
-0.241905
  0
VERTEX
  8
0
 10
31.979952
 20
64.427264
 42
-0.004561
  0
VERTEX
  8
0
 10
35.028014
 20
64.655949
 42
-0.010031
  0
VERTEX
  8
0
 10
38.660458
 20
64.822079
 42
-0.006411
  0
VERTEX
  8
0
 10
42.886370
 20
64.876262
 42
0.000000
  0
VERTEX
  8
0
 10
53.827353
 20
64.876262
 42
0.000000
  0
SEQEND
  0
POLYLINE
  8
0
 66
1
 70
1
  0
VERTEX
  8
0
 10
136.955748
 20
59.376262
 42
-0.004809
  0
VERTEX
  8
0
 10
136.818858
 20
57.439723
 42
-0.007338
  0
VERTEX
  8
0
 10
136.659277
 20
55.762566
 42
-0.003196
  0
VERTEX
  8
0
 10
136.493859
 20
54.342114
 42
-0.164976
  0
VERTEX
  8
0
 10
136.374980
 20
54.095595
 42
-0.195265
  0
VERTEX
  8
0
 10
136.102928
 20
53.977747
 42
-0.000067
  0
VERTEX
  8
0
 10
124.537244
 20
53.712046
 42
-0.001077
  0
VERTEX
  8
0
 10
111.680598
 20
53.446114
 42
-0.000653
  0
VERTEX
  8
0
 10
96.463353
 20
53.184022
 42
0.000000
  0
VERTEX
  8
0
 10
56.827353
 20
52.553116
 42
0.000000
  0
VERTEX
  8
0
 10
56.827353
 20
58.726033
 42
0.000000
  0
VERTEX
  8
0
 10
56.827353
 20
64.898950
 42
0.000000
  0
VERTEX
  8
0
 10
97.044121
 20
64.637606
 42
0.000000
  0
VERTEX
  8
0
 10
137.260890
 20
64.376262
 42
0.000000
  0
SEQEND
  0
POLYLINE
  8
0
 66
1
 70
1
  0
VERTEX
  8
0
 10
641.673728
 20
64.226519
 42
0.000000
  0
VERTEX
  8
0
 10
650.827353
 20
63.576776
 42
0.000000
  0
VERTEX
  8
0
 10
650.827353
 20
58.215426
 42
0.000000
  0
VERTEX
  8
0
 10
650.827353
 20
52.854075
 42
0.000000
  0
VERTEX
  8
0
 10
609.577353
 20
53.115168
 42
0.000000
  0
VERTEX
  8
0
 10
568.327353
 20
53.376262
 42
0.000000
  0
VERTEX
  8
0
 10
568.027449
 20
59.126262
 42
0.000000
  0
VERTEX
  8
0
 10
567.727545
 20
64.876262
 42
0.000000
  0
VERTEX
  8
0
 10
600.123824
 20
64.876262
 42
-0.001822
  0
VERTEX
  8
0
 10
613.198185
 20
64.828619
 42
-0.002087
  0
VERTEX
  8
0
 10
625.692574
 20
64.685400
 42
-0.001881
  0
VERTEX
  8
0
 10
636.289627
 20
64.479817
 42
-0.011927
  0
SEQEND
  0
POLYLINE
  8
0
 66
1
 70
1
  0
VERTEX
  8
0
 10
699.077353
 20
63.950293
 42
0.000000
  0
VERTEX
  8
0
 10
734.827353
 20
63.781754
 42
0.000000
  0
VERTEX
  8
0
 10
734.827353
 20
57.829008
 42
-0.012810
  0
VERTEX
  8
0
 10
734.758338
 20
55.135721
 42
-0.038622
  0
VERTEX
  8
0
 10
734.523194
 20
53.315096
 42
-0.063024
  0
VERTEX
  8
0
 10
734.138848
 20
52.198581
 42
-0.277224
  0
VERTEX
  8
0
 10
733.577353
 20
51.836682
 42
-0.010195
  0
VERTEX
  8
0
 10
723.210966
 20
51.719905
 42
-0.000881
  0
VERTEX
  8
0
 10
696.765096
 20
52.007793
 42
-0.000691
  0
VERTEX
  8
0
 10
669.813355
 20
52.385940
 42
-0.014706
  0
VERTEX
  8
0
 10
661.827353
 20
52.744130
 42
0.000000
  0
VERTEX
  8
0
 10
653.327353
 20
53.376262
 42
0.000000
  0
VERTEX
  8
0
 10
653.027966
 20
58.543426
 42
-0.030130
  0
VERTEX
  8
0
 10
653.036528
 20
62.160523
 42
-0.203665
  0
VERTEX
  8
0
 10
653.821318
 20
63.726987
 42
-0.171976
  0
VERTEX
  8
0
 10
655.582099
 20
64.397598
 42
-0.020403
  0
VERTEX
  8
0
 10
659.827353
 20
64.323199
 42
0.011850
  0
VERTEX
  8
0
 10
662.338085
 20
64.236228
 42
0.000357
  0
VERTEX
  8
0
 10
672.800790
 20
64.129357
 42
0.000708
  0
VERTEX
  8
0
 10
685.125668
 20
64.029707
 42
0.000489
  0
SEQEND
  0
POLYLINE
  8
0
 66
1
 70
1
  0
VERTEX
  8
0
 10
28.589012
 20
63.189181
 42
-0.041951
  0
VERTEX
  8
0
 10
27.761571
 20
63.045279
 42
-0.020826
  0
VERTEX
  8
0
 10
26.696946
 20
62.995534
 42
-0.020511
  0
VERTEX
  8
0
 10
25.582092
 20
63.035653
 42
-0.028254
  0
VERTEX
  8
0
 10
24.589012
 20
63.169001
 42
-0.082665
  0
VERTEX
  8
0
 10
24.146915
 20
63.332851
 42
-0.671610
  0
VERTEX
  8
0
 10
24.166715
 20
63.482075
 42
-0.053901
  0
VERTEX
  8
0
 10
24.898454
 20
63.591428
 42
-0.008901
  0
VERTEX
  8
0
 10
26.327353
 20
63.624078
 42
-0.009782
  0
VERTEX
  8
0
 10
27.765778
 20
63.603193
 42
-0.038992
  0
VERTEX
  8
0
 10
28.641715
 20
63.504652
 42
-0.417468
  0
VERTEX
  8
0
 10
28.743574
 20
63.352482
 42
-0.285845
  0
SEQEND
  0
POLYLINE
  8
0
 66
1
 70
1
  0
VERTEX
  8
0
 10
764.827353
 20
62.865496
 42
-0.009686
  0
VERTEX
  8
0
 10
766.953680
 20
62.814911
 42
-0.068949
  0
VERTEX
  8
0
 10
767.964902
 20
62.630025
 42
-0.399747
  0
VERTEX
  8
0
 10
768.140213
 20
62.302693
 42
-0.184085
  0
VERTEX
  8
0
 10
767.827353
 20
61.876262
 42
0.022760
  0
VERTEX
  8
0
 10
767.301692
 20
61.501585
 42
0.069642
  0
VERTEX
  8
0
 10
766.998626
 20
61.187143
 42
0.246367
  0
VERTEX
  8
0
 10
766.970499
 20
60.994267
 42
0.312898
  0
VERTEX
  8
0
 10
767.112537
 20
60.891574
 42
-0.324599
  0
VERTEX
  8
0
 10
767.327133
 20
60.729370
 42
-0.106498
  0
VERTEX
  8
0
 10
767.362193
 20
60.311087
 42
-0.060382
  0
VERTEX
  8
0
 10
767.202146
 20
59.682163
 42
-0.030407
  0
VERTEX
  8
0
 10
766.859832
 20
58.936950
 42
0.036372
  0
VERTEX
  8
0
 10
766.464187
 20
58.047853
 42
0.083248
  0
VERTEX
  8
0
 10
766.333366
 20
57.328363
 42
0.120421
  0
VERTEX
  8
0
 10
766.460401
 20
56.775710
 42
0.138779
  0
VERTEX
  8
0
 10
766.824649
 20
56.377933
 42
-0.108326
  0
VERTEX
  8
0
 10
767.548786
 20
55.676623
 42
-0.153209
  0
VERTEX
  8
0
 10
767.796484
 20
54.820217
 42
-0.207566
  0
VERTEX
  8
0
 10
767.488171
 20
54.151183
 42
-0.184463
  0
VERTEX
  8
0
 10
766.768336
 20
53.876262
 42
-0.108972
  0
VERTEX
  8
0
 10
766.413392
 20
53.954549
 42
-0.182303
  0
VERTEX
  8
0
 10
766.201953
 20
54.170012
 42
-0.161196
  0
VERTEX
  8
0
 10
766.170840
 20
54.494162
 42
-0.082592
  0
VERTEX
  8
0
 10
766.327353
 20
54.876262
 42
0.049511
  0
VERTEX
  8
0
 10
766.514816
 20
55.259791
 42
0.107726
  0
VERTEX
  8
0
 10
766.560646
 20
55.582512
 42
0.183940
  0
VERTEX
  8
0
 10
766.462924
 20
55.791512
 42
0.194814
  0
VERTEX
  8
0
 10
766.253665
 20
55.876262
 42
0.198491
  0
VERTEX
  8
0
 10
765.409488
 20
55.527393
 42
0.015887
  0
VERTEX
  8
0
 10
763.722053
 20
53.735003
 42
0.018865
  0
VERTEX
  8
0
 10
762.170271
 20
51.838451
 42
0.126036
  0
VERTEX
  8
0
 10
761.702353
 20
50.723252
 42
0.000920
  0
VERTEX
  8
0
 10
761.645479
 20
50.332909
 42
0.000508
  0
VERTEX
  8
0
 10
761.577353
 20
49.855794
 42
0.000506
  0
VERTEX
  8
0
 10
761.509282
 20
49.372057
 42
0.000815
  0
VERTEX
  8
0
 10
761.452353
 20
48.959595
 42
-0.056086
  0
VERTEX
  8
0
 10
761.349680
 20
48.553404
 42
-0.031535
  0
VERTEX
  8
0
 10
761.140724
 20
48.088851
 42
-0.031080
  0
VERTEX
  8
0
 10
760.867321
 20
47.640789
 42
-0.043874
  0
VERTEX
  8
0
 10
760.567020
 20
47.282596
 42
-0.370269
  0
VERTEX
  8
0
 10
759.609833
 20
47.209551
 42
-0.080096
  0
VERTEX
  8
0
 10
758.348502
 20
48.489999
 42
-0.066403
  0
VERTEX
  8
0
 10
757.386538
 20
50.313578
 42
-0.175370
  0
VERTEX
  8
0
 10
757.378402
 20
51.767705
 42
0.022501
  0
VERTEX
  8
0
 10
757.593809
 20
52.472486
 42
0.442163
  0
VERTEX
  8
0
 10
757.482637
 20
52.641797
 42
0.205609
  0
VERTEX
  8
0
 10
757.192320
 20
52.568157
 42
0.009686
  0
VERTEX
  8
0
 10
756.386025
 20
51.924955
 42
-0.123671
  0
VERTEX
  8
0
 10
755.246621
 20
51.379285
 42
-0.036724
  0
VERTEX
  8
0
 10
753.316262
 20
51.132557
 42
-0.025560
  0
VERTEX
  8
0
 10
750.528285
 20
51.125305
 42
-0.008650
  0
VERTEX
  8
0
 10
746.477538
 20
51.392259
 42
0.000000
  0
VERTEX
  8
0
 10
738.056163
 20
52.093756
 42
0.000000
  0
VERTEX
  8
0
 10
737.402972
 20
57.017744
 42
-0.015326
  0
VERTEX
  8
0
 10
737.203182
 20
58.984517
 42
-0.019049
  0
VERTEX
  8
0
 10
737.143460
 20
60.821836
 42
-0.017623
  0
VERTEX
  8
0
 10
737.205647
 20
62.343593
 42
-0.119943
  0
VERTEX
  8
0
 10
737.436772
 20
63.053306
 42
-0.228133
  0
VERTEX
  8
0
 10
738.217179
 20
63.552017
 42
-0.020013
  0
VERTEX
  8
0
 10
740.621651
 20
63.744839
 42
-0.018282
  0
VERTEX
  8
0
 10
744.117699
 20
63.756870
 42
-0.006111
  0
VERTEX
  8
0
 10
749.225558
 20
63.525118
 42
0.001914
  0
VERTEX
  8
0
 10
753.805932
 20
63.278751
 42
0.001914
  0
VERTEX
  8
0
 10
758.388076
 20
63.067453
 42
0.001870
  0
VERTEX
  8
0
 10
762.389542
 20
62.913267
 42
0.007590
  0
SEQEND
  0
POLYLINE
  8
0
 66
1
 70
1
  0
VERTEX
  8
0
 10
764.876790
 20
47.973167
 42
-0.021302
  0
VERTEX
  8
0
 10
763.386260
 20
45.335399
 42
-0.112773
  0
VERTEX
  8
0
 10
762.224867
 20
44.165001
 42
-0.267981
  0
VERTEX
  8
0
 10
761.206186
 20
44.123207
 42
-0.134444
  0
VERTEX
  8
0
 10
760.231861
 20
45.030770
 42
-0.029625
  0
VERTEX
  8
0
 10
759.992778
 20
45.474357
 42
-0.278107
  0
VERTEX
  8
0
 10
760.015052
 20
45.680957
 42
-0.344498
  0
VERTEX
  8
0
 10
760.193915
 20
45.728035
 42
-0.036870
  0
VERTEX
  8
0
 10
760.600848
 20
45.516249
 42
0.337652
  0
VERTEX
  8
0
 10
761.367982
 20
45.591430
 42
0.077949
  0
VERTEX
  8
0
 10
762.224258
 20
46.680588
 42
0.057091
  0
VERTEX
  8
0
 10
762.948768
 20
48.410509
 42
0.047092
  0
VERTEX
  8
0
 10
763.323651
 20
50.376262
 42
-0.125605
  0
VERTEX
  8
0
 10
763.453308
 20
50.737921
 42
-0.113763
  0
VERTEX
  8
0
 10
763.744305
 20
51.009074
 42
-0.101310
  0
VERTEX
  8
0
 10
764.155603
 20
51.146117
 42
-0.081263
  0
VERTEX
  8
0
 10
764.622807
 20
51.126262
 42
0.096106
  0
VERTEX
  8
0
 10
765.082369
 20
51.120279
 42
0.118526
  0
VERTEX
  8
0
 10
765.473518
 20
51.292407
 42
0.122859
  0
VERTEX
  8
0
 10
765.734161
 20
51.617508
 42
0.108246
  0
VERTEX
  8
0
 10
765.827353
 20
52.042928
 42
-0.048087
  0
VERTEX
  8
0
 10
765.866794
 20
52.452088
 42
-0.143456
  0
VERTEX
  8
0
 10
765.994720
 20
52.699519
 42
-0.260520
  0
VERTEX
  8
0
 10
766.181506
 20
52.757084
 42
-0.144656
  0
VERTEX
  8
0
 10
766.397114
 20
52.639834
 42
-0.260441
  0
VERTEX
  8
0
 10
766.517643
 20
52.214016
 42
-0.020307
  0
VERTEX
  8
0
 10
766.185546
 20
51.033974
 42
-0.023602
  0
VERTEX
  8
0
 10
765.636369
 20
49.584361
 42
-0.015604
  0
SEQEND
  0
POLYLINE
  8
0
 66
1
 70
1
  0
VERTEX
  8
0
 10
133.187674
 20
49.102267
 42
-0.569949
  0
VERTEX
  8
0
 10
133.021432
 20
48.784874
 42
-0.001582
  0
VERTEX
  8
0
 10
127.160144
 20
48.496932
 42
-0.005806
  0
VERTEX
  8
0
 10
120.273269
 20
48.260545
 42
-0.003369
  0
VERTEX
  8
0
 10
111.996691
 20
48.128437
 42
0.002004
  0
VERTEX
  8
0
 10
102.663695
 20
48.004965
 42
0.001567
  0
VERTEX
  8
0
 10
92.533993
 20
47.798588
 42
0.001584
  0
VERTEX
  8
0
 10
83.106222
 20
47.547055
 42
0.003876
  0
VERTEX
  8
0
 10
76.169981
 20
47.286167
 42
-0.006085
  0
VERTEX
  8
0
 10
70.648078
 20
47.102904
 42
-0.008861
  0
VERTEX
  8
0
 10
65.776940
 20
47.086913
 42
-0.005087
  0
VERTEX
  8
0
 10
61.698960
 20
47.187305
 42
-0.135370
  0
VERTEX
  8
0
 10
60.669981
 20
47.509997
 42
-0.731181
  0
VERTEX
  8
0
 10
60.827695
 20
48.091394
 42
-0.001697
  0
VERTEX
  8
0
 10
73.822421
 20
48.609029
 42
-0.003802
  0
VERTEX
  8
0
 10
91.754359
 20
49.125860
 42
-0.001092
  0
VERTEX
  8
0
 10
119.518336
 20
49.654113
 42
-0.005544
  0
VERTEX
  8
0
 10
124.609189
 20
49.683391
 42
-0.008753
  0
VERTEX
  8
0
 10
128.974984
 20
49.583644
 42
-0.003504
  0
VERTEX
  8
0
 10
132.672001
 20
49.408435
 42
-0.245474
  0
SEQEND
  0
POLYLINE
  8
0
 66
1
 70
1
  0
VERTEX
  8
0
 10
220.826917
 20
49.147458
 42
-0.407734
  0
VERTEX
  8
0
 10
220.517871
 20
48.831841
 42
-0.000395
  0
VERTEX
  8
0
 10
209.517275
 20
48.602801
 42
-0.003130
  0
VERTEX
  8
0
 10
197.089401
 20
48.431681
 42
-0.001877
  0
VERTEX
  8
0
 10
182.326622
 20
48.376262
 42
-0.001717
  0
VERTEX
  8
0
 10
167.563883
 20
48.426951
 42
-0.002863
  0
VERTEX
  8
0
 10
155.136183
 20
48.583468
 42
-0.000330
  0
VERTEX
  8
0
 10
144.110194
 20
48.792773
 42
-0.408594
  0
VERTEX
  8
0
 10
143.827058
 20
49.081646
 42
-0.407852
  0
VERTEX
  8
0
 10
144.110421
 20
49.371004
 42
-0.000330
  0
VERTEX
  8
0
 10
155.136641
 20
49.599156
 42
-0.002863
  0
VERTEX
  8
0
 10
167.564524
 20
49.776917
 42
-0.001717
  0
VERTEX
  8
0
 10
182.327353
 20
49.852843
 42
-0.001877
  0
VERTEX
  8
0
 10
197.090132
 20
49.822659
 42
-0.003130
  0
VERTEX
  8
0
 10
209.517850
 20
49.672783
 42
-0.000395
  0
VERTEX
  8
0
 10
220.518210
 20
49.462547
 42
-0.408562
  0
SEQEND
  0
POLYLINE
  8
0
 66
1
 70
1
  0
VERTEX
  8
0
 10
306.827236
 20
49.126262
 42
-0.408204
  0
VERTEX
  8
0
 10
306.526325
 20
48.819196
 42
-0.000355
  0
VERTEX
  8
0
 10
295.224037
 20
48.596574
 42
-0.002967
  0
VERTEX
  8
0
 10
282.473405
 20
48.430158
 42
-0.001779
  0
VERTEX
  8
0
 10
267.327149
 20
48.376262
 42
-0.001779
  0
VERTEX
  8
0
 10
252.180907
 20
48.430158
 42
-0.002967
  0
VERTEX
  8
0
 10
239.430320
 20
48.596574
 42
-0.000355
  0
VERTEX
  8
0
 10
228.128094
 20
48.819196
 42
-0.408284
  0
VERTEX
  8
0
 10
227.827266
 20
49.126262
 42
-0.408216
  0
VERTEX
  8
0
 10
228.128164
 20
49.433327
 42
-0.000355
  0
VERTEX
  8
0
 10
239.430452
 20
49.655949
 42
-0.002967
  0
VERTEX
  8
0
 10
252.181087
 20
49.822365
 42
-0.001779
  0
VERTEX
  8
0
 10
267.327353
 20
49.876262
 42
-0.001779
  0
VERTEX
  8
0
 10
282.473604
 20
49.822365
 42
-0.002967
  0
VERTEX
  8
0
 10
295.224193
 20
49.655949
 42
-0.000355
  0
VERTEX
  8
0
 10
306.526419
 20
49.433327
 42
-0.408295
  0
SEQEND
  0
POLYLINE
  8
0
 66
1
 70
1
  0
VERTEX
  8
0
 10
392.827738
 20
49.126262
 42
-0.408479
  0
VERTEX
  8
0
 10
392.526920
 20
48.819168
 42
-0.000346
  0
VERTEX
  8
0
 10
381.078144
 20
48.596574
 42
-0.002930
  0
VERTEX
  8
0
 10
368.166363
 20
48.430158
 42
-0.001757
  0
VERTEX
  8
0
 10
352.828579
 20
48.376262
 42
-0.001757
  0
VERTEX
  8
0
 10
337.490711
 20
48.430158
 42
-0.002930
  0
VERTEX
  8
0
 10
324.578654
 20
48.596574
 42
-0.000346
  0
VERTEX
  8
0
 10
313.129504
 20
48.819168
 42
-0.408002
  0
VERTEX
  8
0
 10
312.828194
 20
49.126262
 42
-0.408656
  0
VERTEX
  8
0
 10
313.128829
 20
49.433355
 42
-0.000346
  0
VERTEX
  8
0
 10
324.577600
 20
49.655949
 42
-0.002930
  0
VERTEX
  8
0
 10
337.489425
 20
49.822366
 42
-0.001757
  0
VERTEX
  8
0
 10
352.827353
 20
49.876262
 42
-0.001757
  0
VERTEX
  8
0
 10
368.165365
 20
49.822365
 42
-0.002930
  0
VERTEX
  8
0
 10
381.077466
 20
49.655949
 42
-0.000346
  0
VERTEX
  8
0
 10
392.526610
 20
49.433355
 42
-0.408180
  0
SEQEND
  0
POLYLINE
  8
0
 66
1
 70
1
  0
VERTEX
  8
0
 10
477.327353
 20
48.876262
 42
-0.576928
  0
VERTEX
  8
0
 10
477.068481
 20
48.394401
 42
-0.001474
  0
VERTEX
  8
0
 10
467.679159
 20
48.128645
 42
-0.004699
  0
VERTEX
  8
0
 10
455.468882
 20
47.933866
 42
-0.001638
  0
VERTEX
  8
0
 10
437.886370
 20
47.876262
 42
-0.001702
  0
VERTEX
  8
0
 10
420.497124
 20
47.935456
 42
-0.004537
  0
VERTEX
  8
0
 10
408.092107
 20
48.132502
 42
-0.001122
  0
VERTEX
  8
0
 10
398.290589
 20
48.399180
 42
-0.405616
  0
VERTEX
  8
0
 10
397.827353
 20
48.876262
 42
-0.405463
  0
VERTEX
  8
0
 10
398.290027
 20
49.353014
 42
-0.001155
  0
VERTEX
  8
0
 10
407.937599
 20
49.619923
 42
-0.004607
  0
VERTEX
  8
0
 10
420.152833
 20
49.817033
 42
-0.001730
  0
VERTEX
  8
0
 10
437.268336
 20
49.876262
 42
-0.001796
  0
VERTEX
  8
0
 10
454.196869
 20
49.815446
 42
-0.004443
  0
VERTEX
  8
0
 10
466.605412
 20
49.616005
 42
-0.001210
  0
VERTEX
  8
0
 10
476.515996
 20
49.344603
 42
-0.251995
  0
SEQEND
  0
POLYLINE
  8
0
 66
1
 70
1
  0
VERTEX
  8
0
 10
527.827353
 20
48.578856
 42
-0.902271
  0
VERTEX
  8
0
 10
527.836760
 20
48.449821
 42
-0.036929
  0
VERTEX
  8
0
 10
526.532040
 20
48.316792
 42
-0.003844
  0
VERTEX
  8
0
 10
519.973013
 20
48.184956
 42
-0.001182
  0
VERTEX
  8
0
 10
510.077353
 20
48.085551
 42
-0.002579
  0
VERTEX
  8
0
 10
499.628284
 20
48.059197
 42
-0.004301
  0
VERTEX
  8
0
 10
490.831677
 20
48.158053
 42
-0.000744
  0
VERTEX
  8
0
 10
483.123544
 20
48.322471
 42
-0.407066
  0
VERTEX
  8
0
 10
482.826117
 20
48.626262
 42
-0.414172
  0
VERTEX
  8
0
 10
483.318827
 20
49.120670
 42
-0.000711
  0
VERTEX
  8
0
 10
496.423493
 20
49.125504
 42
-0.004327
  0
VERTEX
  8
0
 10
511.059287
 20
48.983438
 42
-0.002882
  0
SEQEND
  0
POLYLINE
  8
0
 66
1
 70
1
  0
VERTEX
  8
0
 10
52.827353
 20
47.876262
 42
-0.362859
  0
VERTEX
  8
0
 10
52.478127
 20
47.458408
 42
-0.015539
  0
VERTEX
  8
0
 10
50.437599
 20
47.155470
 42
-0.019326
  0
VERTEX
  8
0
 10
47.713308
 20
46.943472
 42
-0.009754
  0
VERTEX
  8
0
 10
44.268336
 20
46.876262
 42
-0.008266
  0
VERTEX
  8
0
 10
40.642275
 20
46.936209
 42
-0.023056
  0
VERTEX
  8
0
 10
38.105968
 20
47.137418
 42
-0.031132
  0
VERTEX
  8
0
 10
36.502847
 20
47.441598
 42
-0.506273
  0
VERTEX
  8
0
 10
36.327353
 20
47.876262
 42
-0.215801
  0
VERTEX
  8
0
 10
36.914624
 20
48.271294
 42
-0.012687
  0
VERTEX
  8
0
 10
39.096503
 20
48.582512
 42
-0.017326
  0
VERTEX
  8
0
 10
41.798866
 20
48.803676
 42
-0.011753
  0
VERTEX
  8
0
 10
44.886370
 20
48.876262
 42
-0.010716
  0
VERTEX
  8
0
 10
48.058495
 20
48.808271
 42
-0.020605
  0
VERTEX
  8
0
 10
50.592107
 20
48.594779
 42
-0.017187
  0
VERTEX
  8
0
 10
52.487299
 20
48.289632
 42
-0.358465
  0
SEQEND
  0
POLYLINE
  8
0
 66
1
 70
1
  0
VERTEX
  8
0
 10
545.577353
 20
48.160007
 42
-0.023547
  0
VERTEX
  8
0
 10
544.325135
 20
48.030243
 42
-0.014044
  0
VERTEX
  8
0
 10
542.827353
 20
47.988164
 42
-0.014044
  0
VERTEX
  8
0
 10
541.329571
 20
48.030243
 42
-0.023547
  0
VERTEX
  8
0
 10
540.077353
 20
48.160007
 42
-0.124239
  0
VERTEX
  8
0
 10
539.714944
 20
48.312188
 42
-0.664672
  0
VERTEX
  8
0
 10
539.750790
 20
48.454224
 42
-0.031260
  0
VERTEX
  8
0
 10
540.856733
 20
48.551625
 42
-0.006336
  0
VERTEX
  8
0
 10
542.827353
 20
48.576597
 42
-0.006336
  0
VERTEX
  8
0
 10
544.797973
 20
48.551625
 42
-0.031260
  0
VERTEX
  8
0
 10
545.903915
 20
48.454224
 42
-0.664672
  0
VERTEX
  8
0
 10
545.939761
 20
48.312188
 42
-0.124239
  0
SEQEND
  0
POLYLINE
  8
0
 66
1
 70
1
  0
VERTEX
  8
0
 10
554.577353
 20
48.186936
 42
-0.039571
  0
VERTEX
  8
0
 10
553.780087
 20
48.044730
 42
-0.024357
  0
VERTEX
  8
0
 10
552.827353
 20
47.998290
 42
-0.024357
  0
VERTEX
  8
0
 10
551.874619
 20
48.044730
 42
-0.039571
  0
VERTEX
  8
0
 10
551.077353
 20
48.186936
 42
-0.161593
  0
VERTEX
  8
0
 10
550.818212
 20
48.355249
 42
-0.542911
  0
VERTEX
  8
0
 10
550.869540
 20
48.509920
 42
-0.052887
  0
VERTEX
  8
0
 10
551.575370
 20
48.616549
 42
-0.011065
  0
VERTEX
  8
0
 10
552.827353
 20
48.644259
 42
-0.011065
  0
VERTEX
  8
0
 10
554.079336
 20
48.616549
 42
-0.052887
  0
VERTEX
  8
0
 10
554.785165
 20
48.509920
 42
-0.542911
  0
VERTEX
  8
0
 10
554.836493
 20
48.355249
 42
-0.161593
  0
SEQEND
  0
POLYLINE
  8
0
 66
1
 70
1
  0
VERTEX
  8
0
 10
606.577353
 20
48.147793
 42
-0.016375
  0
VERTEX
  8
0
 10
604.870021
 20
48.025548
 42
-0.009683
  0
VERTEX
  8
0
 10
602.827353
 20
47.985985
 42
-0.009683
  0
VERTEX
  8
0
 10
600.784685
 20
48.025548
 42
-0.016375
  0
VERTEX
  8
0
 10
599.077353
 20
48.147793
 42
-0.095407
  0
VERTEX
  8
0
 10
598.606208
 20
48.290681
 42
-0.741699
  0
VERTEX
  8
0
 10
598.632040
 20
48.424828
 42
-0.021699
  0
VERTEX
  8
0
 10
600.138946
 20
48.516610
 42
-0.004360
  0
VERTEX
  8
0
 10
602.827353
 20
48.540055
 42
-0.004360
  0
VERTEX
  8
0
 10
605.515760
 20
48.516610
 42
-0.021699
  0
VERTEX
  8
0
 10
607.022665
 20
48.424828
 42
-0.741699
  0
VERTEX
  8
0
 10
607.048498
 20
48.290681
 42
-0.095407
  0
SEQEND
  0
POLYLINE
  8
0
 66
1
 70
1
  0
VERTEX
  8
0
 10
698.077353
 20
47.170529
 42
-0.029693
  0
VERTEX
  8
0
 10
697.052646
 20
47.035612
 42
-0.017887
  0
VERTEX
  8
0
 10
695.827353
 20
46.991764
 42
-0.017887
  0
VERTEX
  8
0
 10
694.602060
 20
47.035612
 42
-0.029693
  0
VERTEX
  8
0
 10
693.577353
 20
47.170529
 42
-0.142433
  0
VERTEX
  8
0
 10
693.267330
 20
47.329276
 42
-0.611425
  0
VERTEX
  8
0
 10
693.310165
 20
47.476595
 42
-0.039503
  0
VERTEX
  8
0
 10
694.215863
 20
47.577830
 42
-0.008087
  0
VERTEX
  8
0
 10
695.827353
 20
47.603897
 42
-0.008087
  0
VERTEX
  8
0
 10
697.438843
 20
47.577830
 42
-0.039503
  0
VERTEX
  8
0
 10
698.344540
 20
47.476595
 42
-0.611425
  0
VERTEX
  8
0
 10
698.387376
 20
47.329276
 42
-0.142433
  0
SEQEND
  0
POLYLINE
  8
0
 66
1
 70
1
  0
VERTEX
  8
0
 10
135.327353
 20
34.421379
 42
-0.280455
  0
VERTEX
  8
0
 10
135.716233
 20
33.999239
 42
-0.023720
  0
VERTEX
  8
0
 10
135.946903
 20
32.474230
 42
-0.025102
  0
VERTEX
  8
0
 10
136.053246
 20
30.450281
 42
-0.014382
  0
VERTEX
  8
0
 10
135.988532
 20
28.005301
 42
0.000000
  0
VERTEX
  8
0
 10
135.649711
 20
21.876262
 42
0.000000
  0
VERTEX
  8
0
 10
106.988532
 20
21.889163
 42
-0.004413
  0
VERTEX
  8
0
 10
87.004992
 20
22.074548
 42
-0.028356
  0
VERTEX
  8
0
 10
76.928861
 20
22.829653
 42
-0.050214
  0
VERTEX
  8
0
 10
69.647448
 20
24.548691
 42
-0.034904
  0
VERTEX
  8
0
 10
61.864580
 20
27.857270
 42
0.018957
  0
VERTEX
  8
0
 10
60.315419
 20
28.574951
 42
0.036006
  0
VERTEX
  8
0
 10
59.013288
 20
29.012170
 42
0.050075
  0
VERTEX
  8
0
 10
58.096839
 20
29.152455
 42
0.429476
  0
VERTEX
  8
0
 10
57.827353
 20
28.896585
 42
-0.097001
  0
VERTEX
  8
0
 10
57.751086
 20
28.507160
 42
-0.097443
  0
VERTEX
  8
0
 10
57.533603
 20
28.175982
 42
-0.098409
  0
VERTEX
  8
0
 10
57.208961
 20
27.954230
 42
-0.101113
  0
VERTEX
  8
0
 10
56.827353
 20
27.876262
 42
-0.276532
  0
VERTEX
  8
0
 10
56.441742
 20
28.107188
 42
-0.052847
  0
VERTEX
  8
0
 10
56.121103
 20
28.896097
 42
-0.042895
  0
VERTEX
  8
0
 10
55.899905
 20
30.017758
 42
-0.027249
  0
VERTEX
  8
0
 10
55.827353
 20
31.348042
 42
0.000000
  0
VERTEX
  8
0
 10
55.827353
 20
34.819822
 42
0.000000
  0
VERTEX
  8
0
 10
69.577353
 20
35.123322
 42
-0.006568
  0
VERTEX
  8
0
 10
83.827825
 20
35.250625
 42
-0.001618
  0
VERTEX
  8
0
 10
107.232735
 20
35.076507
 42
-0.000326
  0
VERTEX
  8
0
 10
132.840727
 20
34.786399
 42
-0.066986
  0
SEQEND
  0
POLYLINE
  8
0
 66
1
 70
1
  0
VERTEX
  8
0
 10
478.827353
 20
26.787441
 42
0.000000
  0
VERTEX
  8
0
 10
478.827353
 20
18.876262
 42
0.000000
  0
VERTEX
  8
0
 10
439.077353
 20
18.891574
 42
-0.001754
  0
VERTEX
  8
0
 10
423.754814
 20
18.951228
 42
-0.002799
  0
VERTEX
  8
0
 10
410.659517
 20
19.121455
 42
-0.000586
  0
VERTEX
  8
0
 10
399.159381
 20
19.348814
 42
-0.137250
  0
VERTEX
  8
0
 10
398.154932
 20
19.652645
 42
-0.187256
  0
VERTEX
  8
0
 10
397.670188
 20
20.311870
 42
-0.020370
  0
VERTEX
  8
0
 10
397.245332
 20
22.184650
 42
-0.022118
  0
VERTEX
  8
0
 10
396.911097
 20
24.589122
 42
-0.014398
  0
VERTEX
  8
0
 10
396.728682
 20
27.387332
 42
0.000000
  0
VERTEX
  8
0
 10
396.474852
 20
34.376262
 42
0.000000
  0
VERTEX
  8
0
 10
431.401102
 20
34.876262
 42
-0.001130
  0
VERTEX
  8
0
 10
445.233601
 20
35.043013
 42
-0.001470
  0
VERTEX
  8
0
 10
457.903704
 20
35.129858
 42
-0.001094
  0
VERTEX
  8
0
 10
468.523257
 20
35.148187
 42
-0.013425
  0
VERTEX
  8
0
 10
472.577353
 20
35.037441
 42
0.000000
  0
VERTEX
  8
0
 10
478.827353
 20
34.698620
 42
0.000000
  0
SEQEND
  0
POLYLINE
  8
0
 66
1
 70
1
  0
VERTEX
  8
0
 10
221.069548
 20
34.126262
 42
-0.108296
  0
VERTEX
  8
0
 10
221.197411
 20
33.585093
 42
-0.005289
  0
VERTEX
  8
0
 10
221.207954
 20
31.732190
 42
-0.008381
  0
VERTEX
  8
0
 10
221.159955
 20
29.515439
 42
-0.005933
  0
VERTEX
  8
0
 10
221.034862
 20
27.029421
 42
0.000000
  0
VERTEX
  8
0
 10
220.639946
 20
20.682580
 42
0.000000
  0
VERTEX
  8
0
 10
181.483650
 20
21.236540
 42
-0.000192
  0
VERTEX
  8
0
 10
166.348721
 20
21.456458
 42
-0.000299
  0
VERTEX
  8
0
 10
153.315453
 20
21.658626
 42
-0.000078
  0
VERTEX
  8
0
 10
141.931747
 20
21.843790
 42
-0.010882
  0
VERTEX
  8
0
 10
140.577353
 20
21.895529
 42
-0.173212
  0
VERTEX
  8
0
 10
139.687169
 20
22.275009
 42
-0.141804
  0
VERTEX
  8
0
 10
139.149389
 20
23.165929
 42
-0.056710
  0
VERTEX
  8
0
 10
138.888587
 20
24.914618
 42
-0.008688
  0
VERTEX
  8
0
 10
138.827353
 20
28.438410
 42
0.000000
  0
VERTEX
  8
0
 10
138.827353
 20
34.876262
 42
0.000000
  0
VERTEX
  8
0
 10
179.768336
 20
34.876262
 42
-0.001716
  0
VERTEX
  8
0
 10
195.491735
 20
34.822306
 42
-0.002824
  0
VERTEX
  8
0
 10
208.788722
 20
34.655949
 42
-0.000356
  0
VERTEX
  8
0
 10
220.592067
 20
34.433192
 42
-0.283079
  0
SEQEND
  0
POLYLINE
  8
0
 66
1
 70
1
  0
VERTEX
  8
0
 10
306.827353
 20
27.376262
 42
0.000000
  0
VERTEX
  8
0
 10
306.827353
 20
19.876262
 42
0.000000
  0
VERTEX
  8
0
 10
269.966924
 20
19.876262
 42
-0.001600
  0
VERTEX
  8
0
 10
255.508707
 20
19.922537
 42
-0.002230
  0
VERTEX
  8
0
 10
242.571372
 20
20.063064
 42
-0.001353
  0
VERTEX
  8
0
 10
231.681202
 20
20.259423
 42
-0.028878
  0
VERTEX
  8
0
 10
228.466924
 20
20.512186
 42
0.000000
  0
VERTEX
  8
0
 10
223.827353
 20
21.148109
 42
0.000000
  0
VERTEX
  8
0
 10
223.827353
 20
27.345519
 42
-0.010007
  0
VERTEX
  8
0
 10
223.875843
 20
29.768213
 42
-0.014200
  0
VERTEX
  8
0
 10
224.023186
 20
31.918273
 42
-0.010190
  0
VERTEX
  8
0
 10
224.230599
 20
33.679898
 42
-0.163386
  0
VERTEX
  8
0
 10
224.494020
 20
34.209595
 42
-0.194375
  0
VERTEX
  8
0
 10
225.136116
 20
34.482156
 42
-0.000352
  0
VERTEX
  8
0
 10
236.959645
 20
34.680428
 42
-0.002487
  0
VERTEX
  8
0
 10
250.290890
 20
34.828257
 42
-0.001529
  0
VERTEX
  8
0
 10
265.994020
 20
34.876262
 42
0.000000
  0
VERTEX
  8
0
 10
306.827353
 20
34.876262
 42
0.000000
  0
SEQEND
  0
POLYLINE
  8
0
 66
1
 70
1
  0
VERTEX
  8
0
 10
392.827353
 20
27.395314
 42
-0.005980
  0
VERTEX
  8
0
 10
392.770823
 20
22.668873
 42
-0.070803
  0
VERTEX
  8
0
 10
392.469773
 20
20.864140
 42
-0.176294
  0
VERTEX
  8
0
 10
391.730771
 20
19.903367
 42
-0.080229
  0
VERTEX
  8
0
 10
390.254016
 20
19.268499
 42
-0.063727
  0
VERTEX
  8
0
 10
387.180124
 20
18.902148
 42
-0.000241
  0
VERTEX
  8
0
 10
351.419829
 20
19.229117
 42
-0.000450
  0
VERTEX
  8
0
 10
316.749512
 20
19.594030
 42
-0.032709
  0
VERTEX
  8
0
 10
311.077353
 20
20.030620
 42
-0.349066
  0
VERTEX
  8
0
 10
310.171716
 20
20.989407
 42
-0.011024
  0
VERTEX
  8
0
 10
309.809585
 20
26.714829
 42
-0.013455
  0
VERTEX
  8
0
 10
309.728873
 20
32.395047
 42
-0.195614
  0
VERTEX
  8
0
 10
310.494020
 20
34.209595
 42
-0.194375
  0
VERTEX
  8
0
 10
311.136116
 20
34.482156
 42
-0.000352
  0
VERTEX
  8
0
 10
322.959645
 20
34.680428
 42
-0.002487
  0
VERTEX
  8
0
 10
336.290890
 20
34.828257
 42
-0.001529
  0
VERTEX
  8
0
 10
351.994020
 20
34.876262
 42
0.000000
  0
VERTEX
  8
0
 10
392.827353
 20
34.876262
 42
0.000000
  0
SEQEND
  0
POLYLINE
  8
0
 66
1
 70
1
  0
VERTEX
  8
0
 10
565.038546
 20
27.420788
 42
-0.005839
  0
VERTEX
  8
0
 10
564.894920
 20
24.722383
 42
-0.008792
  0
VERTEX
  8
0
 10
564.700957
 20
22.374865
 42
-0.004385
  0
VERTEX
  8
0
 10
564.485691
 20
20.403992
 42
-0.168528
  0
VERTEX
  8
0
 10
564.294865
 20
20.010440
 42
-0.196023
  0
VERTEX
  8
0
 10
563.852176
 20
19.824181
 42
-0.000173
  0
VERTEX
  8
0
 10
552.189017
 20
19.698483
 42
-0.001742
  0
VERTEX
  8
0
 10
539.136473
 20
19.607815
 42
-0.001063
  0
VERTEX
  8
0
 10
523.722228
 20
19.587216
 42
-0.001188
  0
VERTEX
  8
0
 10
502.246647
 20
19.655167
 42
-0.007213
  0
VERTEX
  8
0
 10
491.129528
 20
19.877160
 42
-0.006383
  0
VERTEX
  8
0
 10
484.065058
 20
20.210558
 42
-0.241081
  0
VERTEX
  8
0
 10
482.731222
 20
20.997564
 42
-0.124065
  0
VERTEX
  8
0
 10
482.077478
 20
22.985359
 42
-0.013441
  0
VERTEX
  8
0
 10
481.863393
 20
27.849049
 42
-0.010895
  0
VERTEX
  8
0
 10
481.886478
 20
32.781543
 42
-0.192042
  0
VERTEX
  8
0
 10
482.504967
 20
34.220542
 42
-0.195944
  0
VERTEX
  8
0
 10
483.157405
 20
34.495169
 42
-0.000362
  0
VERTEX
  8
0
 10
495.048545
 20
34.622454
 42
-0.002529
  0
VERTEX
  8
0
 10
508.459408
 20
34.688460
 42
-0.001554
  0
VERTEX
  8
0
 10
524.254967
 20
34.637209
 42
0.000000
  0
VERTEX
  8
0
 10
565.327353
 20
34.376262
 42
0.000000
  0
SEQEND
  0
POLYLINE
  8
0
 66
1
 70
1
  0
VERTEX
  8
0
 10
649.245565
 20
34.269273
 42
-0.165247
  0
VERTEX
  8
0
 10
650.007622
 20
33.635252
 42
-0.081090
  0
VERTEX
  8
0
 10
650.490262
 20
32.452681
 42
-0.044853
  0
VERTEX
  8
0
 10
650.754462
 20
30.522323
 42
-0.011594
  0
VERTEX
  8
0
 10
650.827353
 20
27.379281
 42
0.000000
  0
VERTEX
  8
0
 10
650.827353
 20
21.096278
 42
0.000000
  0
VERTEX
  8
0
 10
630.577353
 20
20.419212
 42
-0.003930
  0
VERTEX
  8
0
 10
621.307379
 20
20.182193
 42
-0.002244
  0
VERTEX
  8
0
 10
610.107040
 20
20.034170
 42
-0.002241
  0
VERTEX
  8
0
 10
598.835410
 20
19.986312
 42
-0.003715
  0
VERTEX
  8
0
 10
589.327353
 20
20.059204
 42
0.000000
  0
VERTEX
  8
0
 10
568.327353
 20
20.376262
 42
0.000000
  0
VERTEX
  8
0
 10
568.033099
 20
27.063258
 42
0.000000
  0
VERTEX
  8
0
 10
567.738845
 20
33.750255
 42
0.000000
  0
VERTEX
  8
0
 10
571.533099
 20
34.145155
 42
-0.024691
  0
VERTEX
  8
0
 10
579.762356
 20
34.592710
 42
-0.000841
  0
VERTEX
  8
0
 10
612.140051
 20
34.698852
 42
-0.000257
  0
VERTEX
  8
0
 10
646.720807
 20
34.736319
 42
-0.092003
  0
SEQEND
  0
POLYLINE
  8
0
 66
1
 70
1
  0
VERTEX
  8
0
 10
42.577353
 20
33.186936
 42
-0.039571
  0
VERTEX
  8
0
 10
41.780087
 20
33.044730
 42
-0.024357
  0
VERTEX
  8
0
 10
40.827353
 20
32.998290
 42
-0.024357
  0
VERTEX
  8
0
 10
39.874619
 20
33.044730
 42
-0.039571
  0
VERTEX
  8
0
 10
39.077353
 20
33.186936
 42
-0.161593
  0
VERTEX
  8
0
 10
38.818212
 20
33.355249
 42
-0.542911
  0
VERTEX
  8
0
 10
38.869540
 20
33.509920
 42
-0.052887
  0
VERTEX
  8
0
 10
39.575370
 20
33.616549
 42
-0.011065
  0
VERTEX
  8
0
 10
40.827353
 20
33.644259
 42
-0.011065
  0
VERTEX
  8
0
 10
42.079336
 20
33.616549
 42
-0.052887
  0
VERTEX
  8
0
 10
42.785165
 20
33.509920
 42
-0.542911
  0
VERTEX
  8
0
 10
42.836493
 20
33.355249
 42
-0.161593
  0
SEQEND
  0
POLYLINE
  8
0
 66
1
 70
1
  0
VERTEX
  8
0
 10
734.827353
 20
29.774537
 42
-0.020118
  0
VERTEX
  8
0
 10
734.763250
 20
28.182007
 42
-0.050456
  0
VERTEX
  8
0
 10
734.553880
 20
27.039779
 42
-0.102031
  0
VERTEX
  8
0
 10
734.234103
 20
26.433663
 42
-0.375131
  0
VERTEX
  8
0
 10
733.840103
 20
26.368382
 42
0.193004
  0
VERTEX
  8
0
 10
733.137718
 20
26.490581
 42
0.011595
  0
VERTEX
  8
0
 10
731.009424
 20
25.987189
 42
0.016020
  0
VERTEX
  8
0
 10
728.444403
 20
25.228778
 42
0.011051
  0
VERTEX
  8
0
 10
725.590103
 20
24.213892
 42
0.000000
  0
VERTEX
  8
0
 10
718.327353
 20
21.449247
 42
0.000000
  0
VERTEX
  8
0
 10
686.077353
 20
21.089222
 42
0.000000
  0
VERTEX
  8
0
 10
653.827353
 20
20.729197
 42
0.000000
  0
VERTEX
  8
0
 10
653.827353
 20
27.323073
 42
0.000000
  0
VERTEX
  8
0
 10
653.827353
 20
33.916949
 42
0.000000
  0
VERTEX
  8
0
 10
694.327353
 20
33.853898
 42
0.000000
  0
VERTEX
  8
0
 10
734.827353
 20
33.790846
 42
0.000000
  0
SEQEND
  0
POLYLINE
  8
0
 66
1
 70
1
  0
VERTEX
  8
0
 10
740.827353
 20
32.376262
 42
-0.031583
  0
VERTEX
  8
0
 10
740.286243
 20
31.802213
 42
-0.034151
  0
VERTEX
  8
0
 10
739.690368
 20
31.316887
 42
-0.036411
  0
VERTEX
  8
0
 10
739.126794
 20
30.977193
 42
-0.117955
  0
VERTEX
  8
0
 10
738.704908
 20
30.876262
 42
-0.167044
  0
VERTEX
  8
0
 10
738.370128
 20
30.991318
 42
-0.095133
  0
VERTEX
  8
0
 10
738.085135
 20
31.316887
 42
-0.075975
  0
VERTEX
  8
0
 10
737.892473
 20
31.802509
 42
-0.056567
  0
VERTEX
  8
0
 10
737.827353
 20
32.376262
 42
-0.132926
  0
VERTEX
  8
0
 10
737.986648
 20
32.964862
 42
-0.107148
  0
VERTEX
  8
0
 10
738.431094
 20
33.449578
 42
-0.089651
  0
VERTEX
  8
0
 10
739.113805
 20
33.767994
 42
-0.064485
  0
VERTEX
  8
0
 10
739.949798
 20
33.876262
 42
-0.021530
  0
VERTEX
  8
0
 10
741.077445
 20
33.827682
 42
-0.243483
  0
VERTEX
  8
0
 10
741.443563
 20
33.596212
 42
-0.285199
  0
VERTEX
  8
0
 10
741.432988
 20
33.194234
 42
-0.027702
  0
SEQEND
  0
POLYLINE
  8
0
 66
1
 70
1
  0
VERTEX
  8
0
 10
750.827353
 20
30.647863
 42
0.010767
  0
VERTEX
  8
0
 10
749.433514
 20
29.731450
 42
0.012235
  0
VERTEX
  8
0
 10
748.139663
 20
28.792808
 42
0.011475
  0
VERTEX
  8
0
 10
747.082472
 20
27.946554
 42
0.064360
  0
VERTEX
  8
0
 10
746.592666
 20
27.414709
 42
-0.158090
  0
VERTEX
  8
0
 10
746.138145
 20
27.075252
 42
-0.374364
  0
VERTEX
  8
0
 10
745.776419
 20
27.223321
 42
-0.122565
  0
VERTEX
  8
0
 10
745.608364
 20
27.968109
 42
-0.035197
  0
VERTEX
  8
0
 10
745.718207
 20
29.154087
 42
0.171848
  0
VERTEX
  8
0
 10
745.657136
 20
29.494231
 42
0.069199
  0
VERTEX
  8
0
 10
745.365043
 20
29.873556
 42
0.057465
  0
VERTEX
  8
0
 10
744.904710
 20
30.232015
 42
0.045132
  0
VERTEX
  8
0
 10
744.336628
 20
30.511076
 42
-0.115111
  0
VERTEX
  8
0
 10
743.058637
 20
31.377204
 42
-0.486462
  0
VERTEX
  8
0
 10
743.184466
 20
32.159130
 42
-0.106694
  0
VERTEX
  8
0
 10
745.050837
 20
32.722469
 42
-0.020875
  0
VERTEX
  8
0
 10
748.577353
 20
32.859415
 42
0.000000
  0
VERTEX
  8
0
 10
754.327353
 20
32.842568
 42
0.000000
  0
SEQEND
  0
POLYLINE
  8
0
 66
1
 70
1
  0
VERTEX
  8
0
 10
735.179074
 20
21.557087
 42
-0.003317
  0
VERTEX
  8
0
 10
735.528713
 20
20.127700
 42
-0.369085
  0
VERTEX
  8
0
 10
735.445633
 20
19.965709
 42
-0.338601
  0
VERTEX
  8
0
 10
735.261556
 20
20.015310
 42
-0.003102
  0
VERTEX
  8
0
 10
734.351055
 20
21.216958
 42
0.059573
  0
VERTEX
  8
0
 10
733.613089
 20
21.991502
 42
0.090335
  0
VERTEX
  8
0
 10
732.803387
 20
22.444832
 42
0.093016
  0
VERTEX
  8
0
 10
731.903778
 20
22.575933
 42
0.066735
  0
VERTEX
  8
0
 10
730.900792
 20
22.399570
 42
-0.041692
  0
VERTEX
  8
0
 10
730.102187
 20
22.217634
 42
-0.075468
  0
VERTEX
  8
0
 10
729.433305
 20
22.224318
 42
-0.118482
  0
VERTEX
  8
0
 10
728.993095
 20
22.408626
 42
-0.239007
  0
VERTEX
  8
0
 10
728.827353
 20
22.735550
 42
-0.254100
  0
VERTEX
  8
0
 10
729.236261
 20
23.488218
 42
-0.071540
  0
VERTEX
  8
0
 10
730.491773
 20
24.068014
 42
-0.063797
  0
VERTEX
  8
0
 10
732.069530
 20
24.326465
 42
-0.089568
  0
VERTEX
  8
0
 10
733.478811
 20
24.122527
 42
-0.119231
  0
VERTEX
  8
0
 10
733.959655
 20
23.821253
 42
-0.047147
  0
VERTEX
  8
0
 10
734.453240
 20
23.210275
 42
-0.043195
  0
VERTEX
  8
0
 10
734.883941
 20
22.419921
 42
-0.041546
  0
SEQEND
  0
POLYLINE
  8
0
 66
1
 70
1
  0
VERTEX
  8
0
 10
80.327353
 20
20.476848
 42
0.014238
  0
VERTEX
  8
0
 10
88.735066
 20
18.807613
 42
0.013142
  0
VERTEX
  8
0
 10
97.451324
 20
17.568358
 42
0.011587
  0
VERTEX
  8
0
 10
107.192504
 20
16.671833
 42
0.007034
  0
VERTEX
  8
0
 10
118.746396
 20
16.041096
 42
-0.003587
  0
VERTEX
  8
0
 10
127.045456
 20
15.645393
 42
-0.016662
  0
VERTEX
  8
0
 10
131.823508
 20
15.223158
 42
-0.022131
  0
VERTEX
  8
0
 10
134.795611
 20
14.726067
 42
-0.266184
  0
VERTEX
  8
0
 10
135.628341
 20
13.980428
 42
-0.515596
  0
VERTEX
  8
0
 10
134.511039
 20
12.454040
 42
-0.001587
  0
VERTEX
  8
0
 10
106.297689
 20
12.915228
 42
-0.003074
  0
VERTEX
  8
0
 10
79.146945
 20
13.612256
 42
-0.116591
  0
VERTEX
  8
0
 10
73.281107
 20
15.197529
 42
0.000000
  0
VERTEX
  8
0
 10
70.327353
 20
16.796186
 42
0.000000
  0
VERTEX
  8
0
 10
73.470364
 20
16.836224
 42
0.069885
  0
VERTEX
  8
0
 10
75.955858
 20
17.217673
 42
0.228925
  0
VERTEX
  8
0
 10
77.148246
 20
18.310634
 42
0.312012
  0
VERTEX
  8
0
 10
76.845706
 20
19.625860
 42
0.097572
  0
VERTEX
  8
0
 10
75.021176
 20
20.732707
 42
-0.045053
  0
VERTEX
  8
0
 10
73.533286
 20
21.434651
 42
-0.783711
  0
VERTEX
  8
0
 10
73.621780
 20
21.731721
 42
-0.038697
  0
VERTEX
  8
0
 10
75.826454
 20
21.453491
 42
-0.005393
  0
SEQEND
  0
POLYLINE
  8
0
 66
1
 70
1
  0
VERTEX
  8
0
 10
722.827353
 20
20.876262
 42
-0.051797
  0
VERTEX
  8
0
 10
722.108152
 20
20.510722
 42
-0.029775
  0
VERTEX
  8
0
 10
721.180478
 20
20.216424
 42
-0.029465
  0
VERTEX
  8
0
 10
720.202799
 20
20.029659
 42
-0.043026
  0
VERTEX
  8
0
 10
719.327353
 20
19.991254
 42
-0.010810
  0
VERTEX
  8
0
 10
718.268202
 20
20.058897
 42
-0.546192
  0
VERTEX
  8
0
 10
718.187156
 20
20.212478
 42
-0.184089
  0
VERTEX
  8
0
 10
718.431274
 20
20.414958
 42
-0.004599
  0
VERTEX
  8
0
 10
719.827353
 20
20.876262
 42
-0.009884
  0
VERTEX
  8
0
 10
722.136945
 20
21.565894
 42
-0.067703
  0
VERTEX
  8
0
 10
723.310285
 20
21.725503
 42
-0.620074
  0
VERTEX
  8
0
 10
723.446774
 20
21.450501
 42
-0.087135
  0
SEQEND
  0
POLYLINE
  8
0
 66
1
 70
1
  0
VERTEX
  8
0
 10
732.827353
 20
20.876262
 42
-0.076687
  0
VERTEX
  8
0
 10
732.770979
 20
20.510863
 42
-0.115807
  0
VERTEX
  8
0
 10
732.607040
 20
20.235337
 42
-0.139203
  0
VERTEX
  8
0
 10
732.362719
 20
20.093218
 42
-0.135437
  0
VERTEX
  8
0
 10
732.077353
 20
20.098646
 42
0.156814
  0
VERTEX
  8
0
 10
731.640669
 20
20.088670
 42
0.022279
  0
VERTEX
  8
0
 10
730.796085
 20
19.752815
 42
0.023565
  0
VERTEX
  8
0
 10
729.803397
 20
19.248366
 42
0.018105
  0
VERTEX
  8
0
 10
728.768782
 20
18.609065
 42
-0.047366
  0
VERTEX
  8
0
 10
727.419858
 20
17.880825
 42
-0.017160
  0
VERTEX
  8
0
 10
725.385775
 20
17.101104
 42
-0.016839
  0
VERTEX
  8
0
 10
723.086792
 20
16.394828
 42
-0.019244
  0
VERTEX
  8
0
 10
720.845053
 20
15.879618
 42
0.008350
  0
VERTEX
  8
0
 10
717.078981
 20
15.100034
 42
0.058411
  0
VERTEX
  8
0
 10
715.310904
 20
14.479553
 42
0.615328
  0
VERTEX
  8
0
 10
715.304967
 20
14.035579
 42
0.099521
  0
VERTEX
  8
0
 10
716.410686
 20
13.714569
 42
-0.828374
  0
VERTEX
  8
0
 10
716.423821
 20
13.587527
 42
-0.033952
  0
VERTEX
  8
0
 10
715.561207
 20
13.392515
 42
-0.010904
  0
VERTEX
  8
0
 10
713.583924
 20
13.128685
 42
-0.004192
  0
VERTEX
  8
0
 10
710.827353
 20
12.845272
 42
-0.019495
  0
VERTEX
  8
0
 10
699.309428
 20
12.210189
 42
-0.003649
  0
VERTEX
  8
0
 10
678.169615
 20
12.024157
 42
-0.000502
  0
VERTEX
  8
0
 10
654.574213
 20
12.012392
 42
-0.414066
  0
VERTEX
  8
0
 10
653.827353
 20
12.759630
 42
-0.317406
  0
VERTEX
  8
0
 10
654.475132
 20
13.677252
 42
-0.049724
  0
VERTEX
  8
0
 10
656.749840
 20
14.238827
 42
-0.026247
  0
VERTEX
  8
0
 10
660.774920
 20
14.602835
 42
-0.005135
  0
VERTEX
  8
0
 10
668.048291
 20
14.802444
 42
0.007904
  0
VERTEX
  8
0
 10
677.438260
 20
15.112188
 42
0.003826
  0
VERTEX
  8
0
 10
689.439441
 20
15.790174
 42
0.003697
  0
VERTEX
  8
0
 10
702.381639
 20
16.716851
 42
0.004163
  0
VERTEX
  8
0
 10
714.806326
 20
17.803028
 42
-0.005365
  0
VERTEX
  8
0
 10
718.494529
 20
18.116522
 42
-0.007993
  0
VERTEX
  8
0
 10
721.727340
 20
18.304495
 42
-0.004047
  0
VERTEX
  8
0
 10
724.454719
 20
18.397262
 42
-0.145892
  0
VERTEX
  8
0
 10
725.056326
 20
18.234749
 42
0.089153
  0
VERTEX
  8
0
 10
725.350689
 20
18.118628
 42
0.167961
  0
VERTEX
  8
0
 10
725.600864
 20
18.152586
 42
0.177286
  0
VERTEX
  8
0
 10
725.767716
 20
18.330923
 42
0.100642
  0
VERTEX
  8
0
 10
725.827353
 20
18.624203
 42
-0.203696
  0
VERTEX
  8
0
 10
725.998683
 20
19.027308
 42
-0.037410
  0
VERTEX
  8
0
 10
726.635165
 20
19.555005
 42
-0.034842
  0
VERTEX
  8
0
 10
727.524249
 20
20.097399
 42
-0.025458
  0
VERTEX
  8
0
 10
728.577353
 20
20.576839
 42
-0.007759
  0
VERTEX
  8
0
 10
730.970615
 20
21.479857
 42
-0.068845
  0
VERTEX
  8
0
 10
732.071217
 20
21.711922
 42
-0.239394
  0
VERTEX
  8
0
 10
732.604020
 20
21.486904
 42
-0.177130
  0
SEQEND
  0
POLYLINE
  8
0
 66
1
 70
1
  0
VERTEX
  8
0
 10
209.577353
 20
14.218925
 42
-0.005627
  0
VERTEX
  8
0
 10
215.085002
 20
13.839331
 42
-0.023810
  0
VERTEX
  8
0
 10
218.364496
 20
13.418321
 42
-0.037081
  0
VERTEX
  8
0
 10
220.330130
 20
12.917633
 42
-0.322328
  0
VERTEX
  8
0
 10
220.827353
 20
12.226467
 42
-0.399559
  0
VERTEX
  8
0
 10
220.103178
 20
11.464926
 42
-0.007097
  0
VERTEX
  8
0
 10
213.937828
 20
11.242285
 42
-0.008028
  0
VERTEX
  8
0
 10
204.091722
 20
11.184714
 42
-0.001242
  0
VERTEX
  8
0
 10
184.577353
 20
11.432397
 42
-0.001119
  0
VERTEX
  8
0
 10
160.075049
 20
11.859106
 42
-0.009628
  0
VERTEX
  8
0
 10
149.136119
 20
12.284911
 42
-0.012910
  0
VERTEX
  8
0
 10
142.816993
 20
12.816839
 42
-0.382408
  0
VERTEX
  8
0
 10
141.827353
 20
13.921575
 42
-0.412400
  0
VERTEX
  8
0
 10
142.622280
 20
14.721443
 42
-0.000452
  0
VERTEX
  8
0
 10
169.088140
 20
14.861520
 42
-0.003853
  0
VERTEX
  8
0
 10
193.173903
 20
14.781626
 42
-0.011634
  0
SEQEND
  0
POLYLINE
  8
0
 66
1
 70
1
  0
VERTEX
  8
0
 10
648.408286
 20
12.007215
 42
-0.250725
  0
VERTEX
  8
0
 10
647.536408
 20
11.501157
 42
-0.001589
  0
VERTEX
  8
0
 10
638.246604
 20
11.209372
 42
-0.004883
  0
VERTEX
  8
0
 10
626.250007
 20
10.987957
 42
-0.001755
  0
VERTEX
  8
0
 10
609.166610
 20
10.899491
 42
0.001302
  0
VERTEX
  8
0
 10
594.306973
 20
10.835999
 42
0.002099
  0
VERTEX
  8
0
 10
581.651655
 20
10.695838
 42
0.000338
  0
VERTEX
  8
0
 10
570.450976
 20
10.517179
 42
0.135049
  0
VERTEX
  8
0
 10
569.698545
 20
10.296654
 42
-0.239041
  0
VERTEX
  8
0
 10
569.369387
 20
10.268840
 42
-0.167087
  0
VERTEX
  8
0
 10
569.083265
 20
10.517817
 42
-0.089769
  0
VERTEX
  8
0
 10
568.889329
 20
11.058265
 42
-0.041392
  0
VERTEX
  8
0
 10
568.827353
 20
11.805637
 42
-0.354116
  0
VERTEX
  8
0
 10
569.856351
 20
13.076356
 42
-0.037690
  0
VERTEX
  8
0
 10
573.901938
 20
13.622163
 42
-0.012330
  0
VERTEX
  8
0
 10
582.236503
 20
13.906504
 42
-0.000695
  0
VERTEX
  8
0
 10
608.077353
 20
14.114654
 42
-0.001594
  0
VERTEX
  8
0
 10
623.186859
 20
14.167184
 42
-0.002573
  0
VERTEX
  8
0
 10
636.051133
 20
14.104697
 42
-0.000433
  0
VERTEX
  8
0
 10
647.417092
 20
13.981147
 42
-0.162231
  0
VERTEX
  8
0
 10
648.190221
 20
13.713394
 42
-0.108091
  0
VERTEX
  8
0
 10
648.470486
 20
13.380916
 42
-0.089721
  0
VERTEX
  8
0
 10
648.610210
 20
12.938771
 42
-0.085379
  0
VERTEX
  8
0
 10
648.589321
 20
12.455809
 42
-0.085207
  0
SEQEND
  0
POLYLINE
  8
0
 66
1
 70
1
  0
VERTEX
  8
0
 10
294.247627
 20
12.990673
 42
-0.006208
  0
VERTEX
  8
0
 10
299.674346
 20
12.643358
 42
-0.018428
  0
VERTEX
  8
0
 10
303.379251
 20
12.222233
 42
-0.019396
  0
VERTEX
  8
0
 10
305.909772
 20
11.738658
 42
-0.261753
  0
VERTEX
  8
0
 10
306.580961
 20
11.126262
 42
-0.498732
  0
VERTEX
  8
0
 10
305.884528
 20
10.121527
 42
-0.006972
  0
VERTEX
  8
0
 10
297.348098
 20
9.904034
 42
-0.007539
  0
VERTEX
  8
0
 10
283.511293
 20
9.953144
 42
-0.001107
  0
VERTEX
  8
0
 10
255.490044
 20
10.537240
 42
-0.001763
  0
VERTEX
  8
0
 10
240.542890
 20
10.934679
 42
-0.009889
  0
VERTEX
  8
0
 10
232.552184
 20
11.333645
 42
-0.009394
  0
VERTEX
  8
0
 10
227.506454
 20
11.781110
 42
-0.383142
  0
VERTEX
  8
0
 10
226.827353
 20
12.537240
 42
-0.388996
  0
VERTEX
  8
0
 10
227.509210
 20
13.281052
 42
-0.010880
  0
VERTEX
  8
0
 10
232.233059
 20
13.589007
 42
-0.010341
  0
VERTEX
  8
0
 10
239.869918
 20
13.762072
 42
-0.001716
  0
VERTEX
  8
0
 10
254.577353
 20
13.740673
 42
-0.001776
  0
VERTEX
  8
0
 10
266.075792
 20
13.643649
 42
-0.001729
  0
VERTEX
  8
0
 10
277.677371
 20
13.464430
 42
-0.001704
  0
VERTEX
  8
0
 10
287.872004
 20
13.236943
 42
-0.006445
  0
SEQEND
  0
POLYLINE
  8
0
 66
1
 70
1
  0
VERTEX
  8
0
 10
563.637431
 20
12.126262
 42
-0.325626
  0
VERTEX
  8
0
 10
562.483137
 20
11.048345
 42
-0.017904
  0
VERTEX
  8
0
 10
557.257474
 20
10.598895
 42
-0.009910
  0
VERTEX
  8
0
 10
547.657125
 20
10.309112
 42
-0.000849
  0
VERTEX
  8
0
 10
523.064107
 20
10.096152
 42
-0.000980
  0
VERTEX
  8
0
 10
500.071095
 20
9.981163
 42
-0.008327
  0
VERTEX
  8
0
 10
489.744018
 20
10.121762
 42
-0.009688
  0
VERTEX
  8
0
 10
483.658214
 20
10.424135
 42
-0.394140
  0
VERTEX
  8
0
 10
482.827353
 20
11.314416
 42
-0.388836
  0
VERTEX
  8
0
 10
483.917682
 20
12.504478
 42
-0.010648
  0
VERTEX
  8
0
 10
491.549451
 20
13.009813
 42
-0.008426
  0
VERTEX
  8
0
 10
504.733626
 20
13.378672
 42
-0.000914
  0
VERTEX
  8
0
 10
535.150677
 20
13.661229
 42
-0.001124
  0
VERTEX
  8
0
 10
552.929313
 20
13.753886
 42
-0.014200
  0
VERTEX
  8
0
 10
559.628869
 20
13.583451
 42
-0.037906
  0
VERTEX
  8
0
 10
562.955470
 20
13.149867
 42
-0.409717
  0
SEQEND
  0
POLYLINE
  8
0
 66
1
 70
1
  0
VERTEX
  8
0
 10
392.827353
 20
11.376262
 42
-0.392494
  0
VERTEX
  8
0
 10
391.996176
 20
10.480536
 42
-0.009426
  0
VERTEX
  8
0
 10
385.827353
 20
10.135521
 42
-0.008267
  0
VERTEX
  8
0
 10
375.398601
 20
9.921848
 42
-0.000988
  0
VERTEX
  8
0
 10
352.327353
 20
9.876262
 42
-0.000988
  0
VERTEX
  8
0
 10
329.256105
 20
9.921848
 42
-0.008267
  0
VERTEX
  8
0
 10
318.827353
 20
10.135521
 42
-0.009426
  0
VERTEX
  8
0
 10
312.658530
 20
10.480536
 42
-0.392494
  0
VERTEX
  8
0
 10
311.827353
 20
11.376262
 42
-0.392494
  0
VERTEX
  8
0
 10
312.658530
 20
12.271987
 42
-0.009426
  0
VERTEX
  8
0
 10
318.827353
 20
12.617002
 42
-0.008267
  0
VERTEX
  8
0
 10
329.256105
 20
12.830675
 42
-0.000988
  0
VERTEX
  8
0
 10
352.327353
 20
12.876262
 42
-0.000988
  0
VERTEX
  8
0
 10
375.398601
 20
12.830675
 42
-0.008267
  0
VERTEX
  8
0
 10
385.827353
 20
12.617002
 42
-0.009426
  0
VERTEX
  8
0
 10
391.996176
 20
12.271987
 42
-0.392494
  0
SEQEND
  0
POLYLINE
  8
0
 66
1
 70
1
  0
VERTEX
  8
0
 10
477.827353
 20
11.396047
 42
-0.391657
  0
VERTEX
  8
0
 10
476.984808
 20
10.485426
 42
-0.010029
  0
VERTEX
  8
0
 10
470.915228
 20
10.135643
 42
-0.008406
  0
VERTEX
  8
0
 10
460.564440
 20
9.921391
 42
-0.000971
  0
VERTEX
  8
0
 10
437.327353
 20
9.876262
 42
-0.001928
  0
VERTEX
  8
0
 10
421.797653
 20
9.936147
 42
-0.003215
  0
VERTEX
  8
0
 10
408.724228
 20
10.121053
 42
-0.000416
  0
VERTEX
  8
0
 10
397.160829
 20
10.368619
 42
-0.407715
  0
VERTEX
  8
0
 10
396.827353
 20
10.709595
 42
-0.062156
  0
VERTEX
  8
0
 10
396.872866
 20
11.074302
 42
-0.039116
  0
VERTEX
  8
0
 10
397.010766
 20
11.481550
 42
-0.038827
  0
VERTEX
  8
0
 10
397.212669
 20
11.867199
 42
-0.056430
  0
VERTEX
  8
0
 10
397.451738
 20
12.167313
 42
-0.194175
  0
VERTEX
  8
0
 10
398.053945
 20
12.423216
 42
-0.000324
  0
VERTEX
  8
0
 10
409.606172
 20
12.626517
 42
-0.002384
  0
VERTEX
  8
0
 10
422.618743
 20
12.785013
 42
-0.001464
  0
VERTEX
  8
0
 10
437.951738
 20
12.853765
 42
-0.000984
  0
VERTEX
  8
0
 10
460.842694
 20
12.844344
 42
-0.008540
  0
VERTEX
  8
0
 10
471.028147
 20
12.646110
 42
-0.010362
  0
VERTEX
  8
0
 10
476.987116
 20
12.304505
 42
-0.391552
  0
SEQEND
  0
POLYLINE
  8
0
 66
1
 70
1
  0
VERTEX
  8
0
 10
734.827353
 20
130.876262
 42
0.322437
  0
VERTEX
  8
0
 10
735.107903
 20
130.486444
 42
0.031449
  0
VERTEX
  8
0
 10
736.296103
 20
130.170012
 42
0.030530
  0
VERTEX
  8
0
 10
737.910799
 20
129.948466
 42
0.018830
  0
VERTEX
  8
0
 10
739.827353
 20
129.876262
 42
0.018830
  0
VERTEX
  8
0
 10
741.743907
 20
129.948466
 42
0.030530
  0
VERTEX
  8
0
 10
743.358603
 20
130.170012
 42
0.031449
  0
VERTEX
  8
0
 10
744.546802
 20
130.486444
 42
0.322437
  0
VERTEX
  8
0
 10
744.827353
 20
130.876262
 42
0.322437
  0
VERTEX
  8
0
 10
744.546802
 20
131.266079
 42
0.031449
  0
VERTEX
  8
0
 10
743.358603
 20
131.582512
 42
0.030530
  0
VERTEX
  8
0
 10
741.743907
 20
131.804057
 42
0.018830
  0
VERTEX
  8
0
 10
739.827353
 20
131.876262
 42
0.018830
  0
VERTEX
  8
0
 10
737.910799
 20
131.804057
 42
0.030530
  0
VERTEX
  8
0
 10
736.296103
 20
131.582512
 42
0.031449
  0
VERTEX
  8
0
 10
735.107903
 20
131.266079
 42
0.322437
  0
SEQEND
  0
POLYLINE
  8
0
 66
1
 70
1
  0
VERTEX
  8
0
 10
745.827353
 20
30.876262
 42
0.148195
  0
VERTEX
  8
0
 10
745.942921
 20
30.494907
 42
0.098894
  0
VERTEX
  8
0
 10
746.267978
 20
30.170012
 42
0.082425
  0
VERTEX
  8
0
 10
746.753896
 20
29.950956
 42
0.064853
  0
VERTEX
  8
0
 10
747.327353
 20
29.876262
 42
0.064853
  0
VERTEX
  8
0
 10
747.900809
 20
29.950956
 42
0.082425
  0
VERTEX
  8
0
 10
748.386728
 20
30.170012
 42
0.098894
  0
VERTEX
  8
0
 10
748.711785
 20
30.494907
 42
0.148195
  0
VERTEX
  8
0
 10
748.827353
 20
30.876262
 42
0.148195
  0
VERTEX
  8
0
 10
748.711785
 20
31.257616
 42
0.098894
  0
VERTEX
  8
0
 10
748.386728
 20
31.582512
 42
0.082425
  0
VERTEX
  8
0
 10
747.900809
 20
31.801567
 42
0.064853
  0
VERTEX
  8
0
 10
747.327353
 20
31.876262
 42
0.064853
  0
VERTEX
  8
0
 10
746.753896
 20
31.801567
 42
0.082425
  0
VERTEX
  8
0
 10
746.267978
 20
31.582512
 42
0.098894
  0
VERTEX
  8
0
 10
745.942921
 20
31.257616
 42
0.148195
  0
SEQEND
  0
ENDSEC
  0
EOF
