  0
SECTION
  2
BLOCKS
  0
ENDSEC
  0
SECTION
  2
ENTITIES
  0
LINE
  8
0
 10
153.769
 20
40.1243
 11
155.371
 21
41.904
  0
LINE
  8
0
 10
155.371
 20
41.904
 11
154.659
 21
44.0397
  0
LINE
  8
0
 10
154.659
 20
44.0397
 11
157.863
 21
43.6838
  0
LINE
  8
0
 10
157.863
 20
43.6838
 11
161.956
 21
44.9296
  0
LINE
  8
0
 10
161.956
 20
44.9296
 11
163.736
 21
47.0653
  0
LINE
  8
0
 10
163.736
 20
47.0653
 11
163.914
 21
48.6671
  0
LINE
  8
0
 10
163.914
 20
48.6671
 11
163.38
 21
49.379
  0
LINE
  8
0
 10
163.38
 20
49.379
 11
162.134
 21
49.735
  0
LINE
  8
0
 10
162.134
 20
49.735
 11
158.041
 21
47.9552
  0
LINE
  8
0
 10
158.041
 20
47.9552
 11
154.303
 21
48.4891
  0
LINE
  8
0
 10
154.303
 20
48.4891
 11
135.794
 21
59.7016
  0
LINE
  8
0
 10
135.794
 20
59.7016
 11
128.319
 21
63.6171
  0
LINE
  8
0
 10
128.319
 20
63.6171
 11
116.75
 21
68.7784
  0
LINE
  8
0
 10
116.75
 20
68.7784
 11
91.6557
 21
78.7451
  0
LINE
  8
0
 10
91.6557
 20
78.7451
 11
80.4432
 21
81.2368
  0
LINE
  8
0
 10
80.4432
 20
81.2368
 11
71.1884
 21
81.7707
  0
LINE
  8
0
 10
71.1884
 20
81.7707
 11
71.0105
 21
81.7707
  0
LINE
  8
0
 10
71.0105
 20
81.7707
 11
65.1373
 21
80.7028
  0
LINE
  8
0
 10
65.1373
 20
80.7028
 11
61.9337
 21
79.279
  0
LINE
  8
0
 10
61.9337
 20
79.279
 11
60.1539
 21
77.4993
  0
LINE
  8
0
 10
60.1539
 20
77.4993
 11
60.3319
 21
76.6094
  0
LINE
  8
0
 10
60.3319
 20
76.6094
 11
58.3742
 21
74.6516
  0
LINE
  8
0
 10
58.3742
 20
74.6516
 11
57.6623
 21
72.8719
  0
LINE
  8
0
 10
57.6623
 20
72.8719
 11
59.62
 21
70.2022
  0
LINE
  8
0
 10
59.62
 20
70.2022
 11
63.1795
 21
69.4903
  0
LINE
  8
0
 10
63.1795
 20
69.4903
 11
63.7135
 21
68.2445
  0
LINE
  8
0
 10
63.7135
 20
68.2445
 11
63.3575
 21
66.9987
  0
LINE
  8
0
 10
63.3575
 20
66.9987
 11
65.4932
 21
65.9308
  0
LINE
  8
0
 10
65.4932
 20
65.9308
 11
66.5611
 21
65.9308
  0
LINE
  8
0
 10
66.5611
 20
65.9308
 11
69.7646
 21
69.3124
  0
LINE
  8
0
 10
69.7646
 20
69.3124
 11
73.3242
 21
70.5582
  0
LINE
  8
0
 10
73.3242
 20
70.5582
 11
76.3498
 21
70.0243
  0
LINE
  8
0
 10
76.3498
 20
70.0243
 11
80.2652
 21
67.5326
  0
LINE
  8
0
 10
80.2652
 20
67.5326
 11
74.57
 21
66.2868
  0
LINE
  8
0
 10
74.57
 20
66.2868
 11
71.3664
 21
63.6171
  0
LINE
  8
0
 10
71.3664
 20
63.6171
 11
69.9426
 21
61.1254
  0
LINE
  8
0
 10
69.9426
 20
61.1254
 11
69.9426
 21
59.3457
  0
LINE
  8
0
 10
69.9426
 20
59.3457
 11
71.1884
 21
57.7439
  0
LINE
  8
0
 10
71.1884
 20
57.7439
 11
72.4343
 21
57.3879
  0
LINE
  8
0
 10
72.4343
 20
57.3879
 11
74.57
 21
58.2778
  0
LINE
  8
0
 10
74.57
 20
58.2778
 11
77.7736
 21
62.0153
  0
LINE
  8
0
 10
77.7736
 20
62.0153
 11
92.5456
 21
57.3879
  0
LINE
  8
0
 10
92.5456
 20
57.3879
 11
95.9271
 21
57.5659
  0
LINE
  8
0
 10
95.9271
 20
57.5659
 11
97.8849
 21
58.8118
  0
LINE
  8
0
 10
97.8849
 20
58.8118
 11
103.402
 21
57.5659
  0
LINE
  8
0
 10
103.402
 20
57.5659
 11
115.683
 21
58.0999
  0
LINE
  8
0
 10
115.683
 20
58.0999
 11
119.242
 21
55.9641
  0
LINE
  8
0
 10
119.242
 20
55.9641
 11
122.802
 21
50.0909
  0
LINE
  8
0
 10
122.802
 20
50.0909
 11
125.827
 21
47.4213
  0
LINE
  8
0
 10
125.827
 20
47.4213
 11
130.099
 21
45.9975
  0
LINE
  8
0
 10
130.099
 20
45.9975
 11
142.201
 21
46.1754
  0
LINE
  8
0
 10
142.201
 20
46.1754
 11
145.938
 21
44.2177
  0
LINE
  8
0
 10
145.938
 20
44.2177
 11
150.566
 21
39.9463
  0
LINE
  8
0
 10
150.566
 20
39.9463
 11
152.168
 21
39.5903
  0
LINE
  8
0
 10
152.168
 20
39.5903
 11
153.769
 21
40.1243
  0
LINE
  8
0
 10
90.0539
 20
77.1433
 11
89.876
 21
76.2534
  0
LINE
  8
0
 10
89.876
 20
76.2534
 11
85.4265
 21
78.7451
  0
LINE
  8
0
 10
85.4265
 20
78.7451
 11
80.2652
 21
80.1689
  0
LINE
  8
0
 10
80.2652
 20
80.1689
 11
76.8837
 21
80.5249
  0
LINE
  8
0
 10
76.8837
 20
80.5249
 11
74.392
 21
79.8129
  0
LINE
  8
0
 10
74.392
 20
79.8129
 11
74.57
 21
80.5249
  0
LINE
  8
0
 10
74.57
 20
80.5249
 11
70.6545
 21
80.7028
  0
LINE
  8
0
 10
70.6545
 20
80.7028
 11
70.4765
 21
80.8808
  0
LINE
  8
0
 10
70.4765
 20
80.8808
 11
75.2819
 21
81.0588
  0
LINE
  8
0
 10
75.2819
 20
81.0588
 11
82.7569
 21
80.1689
  0
LINE
  8
0
 10
82.7569
 20
80.1689
 11
91.1218
 21
78.2112
  0
LINE
  8
0
 10
91.1218
 20
78.2112
 11
98.2408
 21
75.3635
  0
LINE
  8
0
 10
98.2408
 20
75.3635
 11
90.0539
 21
77.1433
  0
LINE
  8
0
 10
150.744
 20
40.6582
 11
144.693
 21
46.5314
  0
LINE
  8
0
 10
144.693
 20
46.5314
 11
143.491
 21
47.1988
  0
LINE
  8
0
 10
143.491
 20
47.1988
 11
143.625
 21
47.0653
  0
LINE
  8
0
 10
143.625
 20
47.0653
 11
143.091
 21
47.0653
  0
LINE
  8
0
 10
143.091
 20
47.0653
 11
143.428
 21
47.2339
  0
LINE
  8
0
 10
143.428
 20
47.2339
 11
141.489
 21
48.3112
  0
LINE
  8
0
 10
141.489
 20
48.3112
 11
141.133
 21
47.7772
  0
LINE
  8
0
 10
141.133
 20
47.7772
 11
140.243
 21
47.9552
  0
LINE
  8
0
 10
140.243
 20
47.9552
 11
140.955
 21
48.3112
  0
LINE
  8
0
 10
140.955
 20
48.3112
 11
129.031
 21
47.9552
  0
LINE
  8
0
 10
129.031
 20
47.9552
 11
125.471
 21
49.379
  0
LINE
  8
0
 10
125.471
 20
49.379
 11
121.734
 21
52.9385
  0
LINE
  8
0
 10
121.734
 20
52.9385
 11
117.996
 21
58.8118
  0
LINE
  8
0
 10
117.996
 20
58.8118
 11
114.259
 21
62.0153
  0
LINE
  8
0
 10
114.259
 20
62.0153
 11
115.86
 21
60.0576
  0
LINE
  8
0
 10
115.86
 20
60.0576
 11
116.038
 21
58.8118
  0
LINE
  8
0
 10
116.038
 20
58.8118
 11
114.259
 21
59.1677
  0
LINE
  8
0
 10
114.259
 20
59.1677
 11
104.47
 21
58.6338
  0
LINE
  8
0
 10
104.47
 20
58.6338
 11
99.1307
 21
59.8796
  0
LINE
  8
0
 10
99.1307
 20
59.8796
 11
98.2408
 21
60.5915
  0
LINE
  8
0
 10
98.2408
 20
60.5915
 11
97.7069
 21
64.685
  0
LINE
  8
0
 10
97.7069
 20
64.685
 11
103.224
 21
63.4391
  0
LINE
  8
0
 10
103.224
 20
63.4391
 11
108.385
 21
63.6171
  0
LINE
  8
0
 10
108.385
 20
63.6171
 11
100.555
 21
65.0409
  0
LINE
  8
0
 10
100.555
 20
65.0409
 11
94.6813
 21
68.4225
  0
LINE
  8
0
 10
94.6813
 20
68.4225
 11
97.351
 21
63.0832
  0
LINE
  8
0
 10
97.351
 20
63.0832
 11
97.351
 21
60.9475
  0
LINE
  8
0
 10
97.351
 20
60.9475
 11
96.1051
 21
59.3457
  0
LINE
  8
0
 10
96.1051
 20
59.3457
 11
94.6813
 21
58.8118
  0
LINE
  8
0
 10
94.6813
 20
58.8118
 11
91.6557
 21
58.8118
  0
LINE
  8
0
 10
91.6557
 20
58.8118
 11
79.5533
 21
62.3713
  0
LINE
  8
0
 10
79.5533
 20
62.3713
 11
77.2396
 21
62.5493
  0
LINE
  8
0
 10
77.2396
 20
62.5493
 11
74.2141
 21
58.9897
  0
LINE
  8
0
 10
74.2141
 20
58.9897
 11
72.4343
 21
60.0576
  0
LINE
  8
0
 10
72.4343
 20
60.0576
 11
72.2563
 21
62.1933
  0
LINE
  8
0
 10
72.2563
 20
62.1933
 11
71.7224
 21
59.8796
  0
LINE
  8
0
 10
71.7224
 20
59.8796
 11
72.9682
 21
58.4558
  0
LINE
  8
0
 10
72.9682
 20
58.4558
 11
71.9004
 21
58.0999
  0
LINE
  8
0
 10
71.9004
 20
58.0999
 11
70.6545
 21
59.7016
  0
LINE
  8
0
 10
70.6545
 20
59.7016
 11
70.6545
 21
61.3034
  0
LINE
  8
0
 10
70.6545
 20
61.3034
 11
72.7902
 21
64.329
  0
LINE
  8
0
 10
72.7902
 20
64.329
 11
75.9938
 21
66.1088
  0
LINE
  8
0
 10
75.9938
 20
66.1088
 11
82.5789
 21
66.4647
  0
LINE
  8
0
 10
82.5789
 20
66.4647
 11
87.7268
 21
64.8713
  0
LINE
  8
0
 10
87.7268
 20
64.8713
 11
84.8926
 21
66.6427
  0
LINE
  8
0
 10
84.8926
 20
66.6427
 11
83.1129
 21
68.4225
  0
LINE
  8
0
 10
83.1129
 20
68.4225
 11
82.045
 21
71.2701
  0
LINE
  8
0
 10
82.045
 20
71.2701
 11
81.6891
 21
67.7106
  0
LINE
  8
0
 10
81.6891
 20
67.7106
 11
77.0617
 21
70.5582
  0
LINE
  8
0
 10
77.0617
 20
70.5582
 11
73.8581
 21
71.4481
  0
LINE
  8
0
 10
73.8581
 20
71.4481
 11
70.6545
 21
75.1856
  0
LINE
  8
0
 10
70.6545
 20
75.1856
 11
70.1206
 21
75.1856
  0
LINE
  8
0
 10
70.1206
 20
75.1856
 11
71.0105
 21
72.338
  0
LINE
  8
0
 10
71.0105
 20
72.338
 11
70.6545
 21
70.9141
  0
LINE
  8
0
 10
70.6545
 20
70.9141
 11
68.1629
 21
69.1344
  0
LINE
  8
0
 10
68.1629
 20
69.1344
 11
65.8492
 21
66.4647
  0
LINE
  8
0
 10
65.8492
 20
66.4647
 11
64.4254
 21
66.8207
  0
LINE
  8
0
 10
64.4254
 20
66.8207
 11
64.2474
 21
67.3546
  0
LINE
  8
0
 10
64.2474
 20
67.3546
 11
67.095
 21
70.9141
  0
LINE
  8
0
 10
67.095
 20
70.9141
 11
66.5611
 21
74.1177
  0
LINE
  8
0
 10
66.5611
 20
74.1177
 11
65.4932
 21
75.0076
  0
LINE
  8
0
 10
65.4932
 20
75.0076
 11
63.8914
 21
75.0076
  0
LINE
  8
0
 10
63.8914
 20
75.0076
 11
61.0438
 21
70.9141
  0
LINE
  8
0
 10
61.0438
 20
70.9141
 11
59.264
 21
71.804
  0
LINE
  8
0
 10
59.264
 20
71.804
 11
59.0861
 21
73.4058
  0
LINE
  8
0
 10
59.0861
 20
73.4058
 11
60.6879
 21
75.1856
  0
LINE
  8
0
 10
60.6879
 20
75.1856
 11
64.4254
 21
76.2534
  0
LINE
  8
0
 10
64.4254
 20
76.2534
 11
65.8492
 21
77.8552
  0
LINE
  8
0
 10
65.8492
 20
77.8552
 11
63.5355
 21
78.0332
  0
LINE
  8
0
 10
63.5355
 20
78.0332
 11
61.9337
 21
76.2534
  0
LINE
  8
0
 10
61.9337
 20
76.2534
 11
61.2218
 21
76.2534
  0
LINE
  8
0
 10
61.2218
 20
76.2534
 11
60.8658
 21
77.1433
  0
LINE
  8
0
 10
60.8658
 20
77.1433
 11
61.9337
 21
78.2112
  0
LINE
  8
0
 10
61.9337
 20
78.2112
 11
65.6712
 21
79.635
  0
LINE
  8
0
 10
65.6712
 20
79.635
 11
70.2986
 21
79.9909
  0
LINE
  8
0
 10
70.2986
 20
79.9909
 11
72.9682
 21
79.9909
  0
LINE
  8
0
 10
72.9682
 20
79.9909
 11
72.9682
 21
79.279
  0
LINE
  8
0
 10
72.9682
 20
79.279
 11
70.2986
 21
77.6772
  0
LINE
  8
0
 10
70.2986
 20
77.6772
 11
68.3408
 21
77.8552
  0
LINE
  8
0
 10
68.3408
 20
77.8552
 11
68.6968
 21
77.1433
  0
LINE
  8
0
 10
68.6968
 20
77.1433
 11
74.2141
 21
75.0076
  0
LINE
  8
0
 10
74.2141
 20
75.0076
 11
78.4855
 21
71.982
  0
LINE
  8
0
 10
78.4855
 20
71.982
 11
75.6379
 21
75.7195
  0
LINE
  8
0
 10
75.6379
 20
75.7195
 11
72.2563
 21
77.6772
  0
LINE
  8
0
 10
72.2563
 20
77.6772
 11
75.6379
 21
79.635
  0
LINE
  8
0
 10
75.6379
 20
79.635
 11
79.5533
 21
79.635
  0
LINE
  8
0
 10
79.5533
 20
79.635
 11
84.8926
 21
78.2112
  0
LINE
  8
0
 10
84.8926
 20
78.2112
 11
88.6301
 21
76.4314
  0
LINE
  8
0
 10
88.6301
 20
76.4314
 11
92.9016
 21
73.0499
  0
LINE
  8
0
 10
92.9016
 20
73.0499
 11
91.2998
 21
76.0755
  0
LINE
  8
0
 10
91.2998
 20
76.0755
 11
94.3254
 21
75.7195
  0
LINE
  8
0
 10
94.3254
 20
75.7195
 11
116.216
 21
67.5326
  0
LINE
  8
0
 10
116.216
 20
67.5326
 11
130.988
 21
61.3034
  0
LINE
  8
0
 10
130.988
 20
61.3034
 11
154.303
 21
47.9552
  0
LINE
  8
0
 10
154.303
 20
47.9552
 11
158.575
 21
47.2433
  0
LINE
  8
0
 10
158.575
 20
47.2433
 11
162.49
 21
48.6671
  0
LINE
  8
0
 10
162.49
 20
48.6671
 11
163.202
 21
47.7772
  0
LINE
  8
0
 10
163.202
 20
47.7772
 11
163.024
 21
46.8873
  0
LINE
  8
0
 10
163.024
 20
46.8873
 11
160.533
 21
44.7516
  0
LINE
  8
0
 10
160.533
 20
44.7516
 11
154.303
 21
44.7516
  0
LINE
  8
0
 10
154.303
 20
44.7516
 11
151.278
 21
46.5314
  0
LINE
  8
0
 10
151.278
 20
46.5314
 11
149.854
 21
48.6671
  0
LINE
  8
0
 10
149.854
 20
48.6671
 11
149.142
 21
48.6671
  0
LINE
  8
0
 10
149.142
 20
48.6671
 11
146.472
 21
51.5147
  0
LINE
  8
0
 10
146.472
 20
51.5147
 11
145.049
 21
52.2266
  0
LINE
  8
0
 10
145.049
 20
52.2266
 11
137.93
 21
53.1165
  0
LINE
  8
0
 10
137.93
 20
53.1165
 11
136.15
 21
53.8284
  0
LINE
  8
0
 10
136.15
 20
53.8284
 11
130.633
 21
59.7016
  0
LINE
  8
0
 10
130.633
 20
59.7016
 11
134.014
 21
53.8284
  0
LINE
  8
0
 10
134.014
 20
53.8284
 11
135.616
 21
52.5826
  0
LINE
  8
0
 10
135.616
 20
52.5826
 11
144.337
 21
51.8707
  0
LINE
  8
0
 10
144.337
 20
51.8707
 11
146.65
 21
50.8028
  0
LINE
  8
0
 10
146.65
 20
50.8028
 11
150.032
 21
46.7094
  0
LINE
  8
0
 10
150.032
 20
46.7094
 11
154.659
 21
42.6159
  0
LINE
  8
0
 10
154.659
 20
42.6159
 11
153.236
 21
41.5481
  0
LINE
  8
0
 10
153.236
 20
41.5481
 11
150.566
 21
42.082
  0
LINE
  8
0
 10
150.566
 20
42.082
 11
152.168
 21
41.0141
  0
LINE
  8
0
 10
152.168
 20
41.0141
 11
150.744
 21
40.6582
  0
LINE
  8
0
 10
71.3664
 20
78.9234
 11
72.0783
 21
79.4573
  0
LINE
  8
0
 10
72.0783
 20
79.4573
 11
70.8325
 21
79.2793
  0
LINE
  8
0
 10
70.8325
 20
79.2793
 11
70.6545
 21
79.4573
  0
LINE
  8
0
 10
70.6545
 20
79.4573
 11
69.2307
 21
78.7454
  0
LINE
  8
0
 10
69.2307
 20
78.7454
 11
71.3664
 21
78.9234
  0
LINE
  8
0
 10
87.7268
 20
64.8717
 11
87.7402
 21
64.8633
  0
LINE
  8
0
 10
87.7402
 20
64.8633
 11
90.0539
 21
64.1514
  0
LINE
  8
0
 10
90.0539
 20
64.1514
 11
87.7268
 21
64.8717
  0
LINE
  8
0
 10
143.447
 20
47.245
 11
143.428
 21
47.2357
  0
LINE
  8
0
 10
143.428
 20
47.2357
 11
143.491
 21
47.2005
  0
LINE
  8
0
 10
143.491
 20
47.2005
 11
143.447
 21
47.245
  0
LINE
  8
0
 10
71.0105
 20
77.1433
 11
71.9004
 21
77.1433
  0
LINE
  8
0
 10
71.9004
 20
77.1433
 11
71.1884
 21
76.9653
  0
LINE
  8
0
 10
71.1884
 20
76.9653
 11
71.0105
 21
77.1433
  0
LINE
  8
0
 10
62.8236
 20
77.1433
 11
64.2474
 21
77.1433
  0
LINE
  8
0
 10
64.2474
 20
77.1433
 11
62.6456
 21
76.2534
  0
LINE
  8
0
 10
62.6456
 20
76.2534
 11
62.8236
 21
77.1433
  0
LINE
  8
0
 10
71.9004
 20
76.7874
 11
72.4343
 21
76.7874
  0
LINE
  8
0
 10
72.4343
 20
76.7874
 11
72.0783
 21
76.6094
  0
LINE
  8
0
 10
72.0783
 20
76.6094
 11
71.9004
 21
76.7874
  0
LINE
  8
0
 10
72.2563
 20
76.6094
 11
72.6123
 21
76.7874
  0
LINE
  8
0
 10
72.6123
 20
76.7874
 11
72.7902
 21
76.6094
  0
LINE
  8
0
 10
72.7902
 20
76.6094
 11
72.2563
 21
76.6094
  0
LINE
  8
0
 10
73.1462
 20
76.2534
 11
73.6801
 21
76.2534
  0
LINE
  8
0
 10
73.6801
 20
76.2534
 11
73.3242
 21
76.0755
  0
LINE
  8
0
 10
73.3242
 20
76.0755
 11
73.1462
 21
76.2534
  0
LINE
  8
0
 10
60.3319
 20
75.8975
 11
60.8658
 21
75.8975
  0
LINE
  8
0
 10
60.8658
 20
75.8975
 11
60.5099
 21
75.7195
  0
LINE
  8
0
 10
60.5099
 20
75.7195
 11
60.3319
 21
75.8975
  0
LINE
  8
0
 10
98.0629
 20
75.1856
 11
98.5968
 21
75.3635
  0
LINE
  8
0
 10
98.5968
 20
75.3635
 11
98.7748
 21
75.1856
  0
LINE
  8
0
 10
98.7748
 20
75.1856
 11
98.0629
 21
75.1856
  0
LINE
  8
0
 10
98.5968
 20
75.0076
 11
98.9527
 21
75.1856
  0
LINE
  8
0
 10
98.9527
 20
75.1856
 11
99.1307
 21
75.0076
  0
LINE
  8
0
 10
99.1307
 20
75.0076
 11
98.5968
 21
75.0076
  0
LINE
  8
0
 10
98.9527
 20
74.8296
 11
99.4867
 21
75.0076
  0
LINE
  8
0
 10
99.4867
 20
75.0076
 11
99.6647
 21
74.8296
  0
LINE
  8
0
 10
99.6647
 20
74.8296
 11
98.9527
 21
74.8296
  0
LINE
  8
0
 10
99.8426
 20
74.4737
 11
100.199
 21
74.6516
  0
LINE
  8
0
 10
100.199
 20
74.6516
 11
100.377
 21
74.4737
  0
LINE
  8
0
 10
100.377
 20
74.4737
 11
99.8426
 21
74.4737
  0
LINE
  8
0
 10
64.6033
 20
74.2957
 11
64.9593
 21
74.4737
  0
LINE
  8
0
 10
64.9593
 20
74.4737
 11
65.1373
 21
74.2957
  0
LINE
  8
0
 10
65.1373
 20
74.2957
 11
64.6033
 21
74.2957
  0
LINE
  8
0
 10
100.377
 20
74.2957
 11
100.91
 21
74.2957
  0
LINE
  8
0
 10
100.91
 20
74.2957
 11
100.555
 21
74.1177
  0
LINE
  8
0
 10
100.555
 20
74.1177
 11
100.377
 21
74.2957
  0
LINE
  8
0
 10
100.733
 20
74.1177
 11
101.088
 21
74.2957
  0
LINE
  8
0
 10
101.088
 20
74.2957
 11
101.266
 21
74.1177
  0
LINE
  8
0
 10
101.266
 20
74.1177
 11
100.733
 21
74.1177
  0
LINE
  8
0
 10
101.622
 20
73.7618
 11
102.156
 21
73.7618
  0
LINE
  8
0
 10
102.156
 20
73.7618
 11
101.8
 21
73.5838
  0
LINE
  8
0
 10
101.8
 20
73.5838
 11
101.622
 21
73.7618
  0
LINE
  8
0
 10
102.512
 20
73.4058
 11
102.868
 21
73.5838
  0
LINE
  8
0
 10
102.868
 20
73.5838
 11
103.046
 21
73.4058
  0
LINE
  8
0
 10
103.046
 20
73.4058
 11
102.512
 21
73.4058
  0
LINE
  8
0
 10
102.156
 20
73.5838
 11
102.69
 21
73.5838
  0
LINE
  8
0
 10
102.69
 20
73.5838
 11
102.334
 21
73.4058
  0
LINE
  8
0
 10
102.334
 20
73.4058
 11
102.156
 21
73.5838
  0
LINE
  8
0
 10
63.8914
 20
68.9564
 11
62.8236
 21
70.0243
  0
LINE
  8
0
 10
62.8236
 20
70.0243
 11
62.6456
 21
71.804
  0
LINE
  8
0
 10
62.6456
 20
71.804
 11
63.8914
 21
73.4058
  0
LINE
  8
0
 10
63.8914
 20
73.4058
 11
64.0694
 21
73.4058
  0
LINE
  8
0
 10
64.0694
 20
73.4058
 11
65.4932
 21
73.0499
  0
LINE
  8
0
 10
65.4932
 20
73.0499
 11
65.8492
 21
70.5582
  0
LINE
  8
0
 10
65.8492
 20
70.5582
 11
64.7813
 21
68.9564
  0
LINE
  8
0
 10
64.7813
 20
68.9564
 11
63.8914
 21
68.9564
  0
LINE
  8
0
 10
104.292
 20
72.6939
 11
104.826
 21
72.6939
  0
LINE
  8
0
 10
104.826
 20
72.6939
 11
104.47
 21
72.5159
  0
LINE
  8
0
 10
104.47
 20
72.5159
 11
104.292
 21
72.6939
  0
LINE
  8
0
 10
106.072
 20
71.982
 11
106.606
 21
71.982
  0
LINE
  8
0
 10
106.606
 20
71.982
 11
106.25
 21
71.804
  0
LINE
  8
0
 10
106.25
 20
71.804
 11
106.072
 21
71.982
  0
LINE
  8
0
 10
106.606
 20
71.804
 11
107.14
 21
71.804
  0
LINE
  8
0
 10
107.14
 20
71.804
 11
106.784
 21
71.626
  0
LINE
  8
0
 10
106.784
 20
71.626
 11
106.606
 21
71.804
  0
LINE
  8
0
 10
106.962
 20
71.626
 11
107.318
 21
71.804
  0
LINE
  8
0
 10
107.318
 20
71.804
 11
107.496
 21
71.626
  0
LINE
  8
0
 10
107.496
 20
71.626
 11
106.962
 21
71.626
  0
LINE
  8
0
 10
141.311
 20
47.7772
 11
141.845
 21
47.7772
  0
LINE
  8
0
 10
141.845
 20
47.7772
 11
141.489
 21
47.5993
  0
LINE
  8
0
 10
141.489
 20
47.5993
 11
141.311
 21
47.7772
  0
LINE
  8
0
 10
141.845
 20
47.5993
 11
142.379
 21
47.5993
  0
LINE
  8
0
 10
142.379
 20
47.5993
 11
142.023
 21
47.4213
  0
LINE
  8
0
 10
142.023
 20
47.4213
 11
141.845
 21
47.5993
  0
LINE
  8
0
 10
151.99
 20
40.8362
 11
153.413
 21
41.0141
  0
LINE
  8
0
 10
153.413
 20
41.0141
 11
153.591
 21
40.8362
  0
LINE
  8
0
 10
153.591
 20
40.8362
 11
151.99
 21
40.8362
  0
LINE
  8
0
 10
151.634
 20
40.4802
 11
152.702
 21
40.4802
  0
LINE
  8
0
 10
152.702
 20
40.4802
 11
151.812
 21
40.3022
  0
LINE
  8
0
 10
151.812
 20
40.3022
 11
151.634
 21
40.4802
  0
LINE
  8
0
 10
151.634
 20
40.6582
 11
150.922
 21
40.6582
  0
LINE
  8
0
 10
150.922
 20
40.6582
 11
151.456
 21
40.8362
  0
LINE
  8
0
 10
151.456
 20
40.8362
 11
151.634
 21
40.6582
  0
LINE
  8
0
 10
100.021
 20
74.6516
 11
99.4867
 21
74.6516
  0
LINE
  8
0
 10
99.4867
 20
74.6516
 11
99.8426
 21
74.8296
  0
LINE
  8
0
 10
99.8426
 20
74.8296
 11
100.021
 21
74.6516
  0
LINE
  8
0
 10
55.7045
 20
26.4231
 11
58.1962
 21
28.7368
  0
LINE
  8
0
 10
58.1962
 20
28.7368
 11
58.5521
 21
35.8559
  0
LINE
  8
0
 10
58.5521
 20
35.8559
 11
54.8146
 21
36.2118
  0
LINE
  8
0
 10
54.8146
 20
36.2118
 11
54.6367
 21
36.2118
  0
LINE
  8
0
 10
54.6367
 20
36.2118
 11
54.4587
 21
30.5166
  0
LINE
  8
0
 10
54.4587
 20
30.5166
 11
53.7468
 21
28.7368
  0
LINE
  8
0
 10
53.7468
 20
28.7368
 11
52.5009
 21
27.6689
  0
LINE
  8
0
 10
52.5009
 20
27.6689
 11
50.8992
 21
27.135
  0
LINE
  8
0
 10
50.8992
 20
27.135
 11
41.1105
 21
26.957
  0
LINE
  8
0
 10
41.1105
 20
26.957
 11
41.1105
 21
25.7112
  0
LINE
  8
0
 10
41.1105
 20
25.7112
 11
42.1783
 21
25.5332
  0
LINE
  8
0
 10
42.1783
 20
25.5332
 11
50.5432
 21
25.5332
  0
LINE
  8
0
 10
50.5432
 20
25.5332
 11
55.7045
 21
26.4231
  0
LINE
  8
0
 10
73.6801
 20
35.6768
 11
69.5867
 21
35.8548
  0
LINE
  8
0
 10
69.5867
 20
35.8548
 11
69.4087
 21
35.8548
  0
LINE
  8
0
 10
69.4087
 20
35.8548
 11
60.5099
 21
25.5322
  0
LINE
  8
0
 10
60.5099
 20
25.5322
 11
63.0015
 21
25.7101
  0
LINE
  8
0
 10
63.0015
 20
25.7101
 11
64.7813
 21
27.8459
  0
LINE
  8
0
 10
64.7813
 20
27.8459
 11
75.9938
 21
27.8459
  0
LINE
  8
0
 10
75.9938
 20
27.8459
 11
78.1295
 21
25.3542
  0
LINE
  8
0
 10
78.1295
 20
25.3542
 11
82.401
 21
25.3542
  0
LINE
  8
0
 10
82.401
 20
25.3542
 11
73.6801
 21
35.6768
  0
LINE
  8
0
 10
65.8492
 20
29.0917
 11
69.9426
 21
33.7191
  0
LINE
  8
0
 10
69.9426
 20
33.7191
 11
70.1206
 21
33.897
  0
LINE
  8
0
 10
70.1206
 20
33.897
 11
71.7224
 21
32.8292
  0
LINE
  8
0
 10
71.7224
 20
32.8292
 11
74.748
 21
28.7357
  0
LINE
  8
0
 10
74.748
 20
28.7357
 11
65.8492
 21
29.0917
  0
LINE
  8
0
 10
103.224
 20
29.8029
 11
99.3087
 21
29.8029
  0
LINE
  8
0
 10
99.3087
 20
29.8029
 11
99.1307
 21
26.5993
  0
LINE
  8
0
 10
99.1307
 20
26.5993
 11
91.8337
 21
26.5993
  0
LINE
  8
0
 10
91.8337
 20
26.5993
 11
89.342
 21
27.6672
  0
LINE
  8
0
 10
89.342
 20
27.6672
 11
87.9182
 21
30.1588
  0
LINE
  8
0
 10
87.9182
 20
30.1588
 11
88.4521
 21
32.4725
  0
LINE
  8
0
 10
88.4521
 20
32.4725
 11
90.7658
 21
34.0743
  0
LINE
  8
0
 10
90.7658
 20
34.0743
 11
101.978
 21
34.0743
  0
LINE
  8
0
 10
101.978
 20
34.0743
 11
102.69
 21
34.2523
  0
LINE
  8
0
 10
102.69
 20
34.2523
 11
102.334
 21
35.4981
  0
LINE
  8
0
 10
102.334
 20
35.4981
 11
90.5879
 21
35.3202
  0
LINE
  8
0
 10
90.5879
 20
35.3202
 11
90.4099
 21
35.4981
  0
LINE
  8
0
 10
90.4099
 20
35.4981
 11
86.8504
 21
34.7862
  0
LINE
  8
0
 10
86.8504
 20
34.7862
 11
84.7146
 21
33.1844
  0
LINE
  8
0
 10
84.7146
 20
33.1844
 11
84.1807
 21
29.4469
  0
LINE
  8
0
 10
84.1807
 20
29.4469
 11
85.6045
 21
26.7773
  0
LINE
  8
0
 10
85.6045
 20
26.7773
 11
90.0539
 21
25.3535
  0
LINE
  8
0
 10
90.0539
 20
25.3535
 11
103.224
 21
25.3535
  0
LINE
  8
0
 10
103.224
 20
25.3535
 11
103.224
 21
29.8029
  0
LINE
  8
0
 10
123.335
 20
25.7103
 11
125.293
 21
27.49
  0
LINE
  8
0
 10
125.293
 20
27.49
 11
125.649
 21
35.143
  0
LINE
  8
0
 10
125.649
 20
35.143
 11
121.912
 21
34.965
  0
LINE
  8
0
 10
121.912
 20
34.965
 11
121.912
 21
28.9138
  0
LINE
  8
0
 10
121.912
 20
28.9138
 11
120.132
 21
26.6001
  0
LINE
  8
0
 10
120.132
 20
26.6001
 11
118.708
 21
26.0662
  0
LINE
  8
0
 10
118.708
 20
26.0662
 11
115.149
 21
26.0662
  0
LINE
  8
0
 10
115.149
 20
26.0662
 11
113.013
 21
26.6001
  0
LINE
  8
0
 10
113.013
 20
26.6001
 11
111.411
 21
28.2019
  0
LINE
  8
0
 10
111.411
 20
28.2019
 11
111.055
 21
35.321
  0
LINE
  8
0
 10
111.055
 20
35.321
 11
107.318
 21
35.321
  0
LINE
  8
0
 10
107.318
 20
35.321
 11
107.14
 21
29.6257
  0
LINE
  8
0
 10
107.14
 20
29.6257
 11
107.852
 21
27.312
  0
LINE
  8
0
 10
107.852
 20
27.312
 11
108.919
 21
26.2442
  0
LINE
  8
0
 10
108.919
 20
26.2442
 11
113.903
 21
24.8204
  0
LINE
  8
0
 10
113.903
 20
24.8204
 11
119.42
 21
24.8204
  0
LINE
  8
0
 10
119.42
 20
24.8204
 11
123.335
 21
25.7103
  0
LINE
  8
0
 10
139.531
 20
34.9643
 11
135.616
 21
34.9643
  0
LINE
  8
0
 10
135.616
 20
34.9643
 11
127.429
 21
24.9977
  0
LINE
  8
0
 10
127.429
 20
24.9977
 11
129.565
 21
24.9977
  0
LINE
  8
0
 10
129.565
 20
24.9977
 11
131.878
 21
27.3113
  0
LINE
  8
0
 10
131.878
 20
27.3113
 11
139.353
 21
27.3113
  0
LINE
  8
0
 10
139.353
 20
27.3113
 11
141.667
 21
27.1334
  0
LINE
  8
0
 10
141.667
 20
27.1334
 11
143.803
 21
24.8197
  0
LINE
  8
0
 10
143.803
 20
24.8197
 11
147.54
 21
24.8197
  0
LINE
  8
0
 10
147.54
 20
24.8197
 11
139.531
 21
34.9643
  0
LINE
  8
0
 10
132.59
 20
28.3792
 11
136.328
 21
33.0066
  0
LINE
  8
0
 10
136.328
 20
33.0066
 11
136.506
 21
33.1846
  0
LINE
  8
0
 10
136.506
 20
33.1846
 11
138.108
 21
31.9387
  0
LINE
  8
0
 10
138.108
 20
31.9387
 11
140.599
 21
28.2012
  0
LINE
  8
0
 10
140.599
 20
28.2012
 11
132.59
 21
28.3792
  0
LINE
  8
0
 10
163.38
 20
28.2027
 11
166.05
 21
29.0926
  0
LINE
  8
0
 10
166.05
 20
29.0926
 11
166.762
 21
30.5164
  0
LINE
  8
0
 10
166.762
 20
30.5164
 11
166.406
 21
33.008
  0
LINE
  8
0
 10
166.406
 20
33.008
 11
165.338
 21
34.2539
  0
LINE
  8
0
 10
165.338
 20
34.2539
 11
151.456
 21
34.6098
  0
LINE
  8
0
 10
151.456
 20
34.6098
 11
151.278
 21
34.7878
  0
LINE
  8
0
 10
151.278
 20
34.7878
 11
151.1
 21
24.8211
  0
LINE
  8
0
 10
151.1
 20
24.8211
 11
154.481
 21
24.8211
  0
LINE
  8
0
 10
154.481
 20
24.8211
 11
154.659
 21
28.2027
  0
LINE
  8
0
 10
154.659
 20
28.2027
 11
159.109
 21
28.2027
  0
LINE
  8
0
 10
159.109
 20
28.2027
 11
163.736
 21
24.8211
  0
LINE
  8
0
 10
163.736
 20
24.8211
 11
168.186
 21
24.6432
  0
LINE
  8
0
 10
168.186
 20
24.6432
 11
163.38
 21
28.2027
  0
LINE
  8
0
 10
154.837
 20
29.2705
 11
154.481
 21
32.8301
  0
LINE
  8
0
 10
154.481
 20
32.8301
 11
154.481
 21
33.008
  0
LINE
  8
0
 10
154.481
 20
33.008
 11
162.668
 21
33.008
  0
LINE
  8
0
 10
162.668
 20
33.008
 11
163.914
 21
31.7622
  0
LINE
  8
0
 10
163.914
 20
31.7622
 11
163.914
 21
30.3384
  0
LINE
  8
0
 10
163.914
 20
30.3384
 11
162.846
 21
29.2705
  0
LINE
  8
0
 10
162.846
 20
29.2705
 11
161.6
 21
29.0926
  0
LINE
  8
0
 10
161.6
 20
29.0926
 11
154.837
 21
29.2705
  0
ENDSEC
  0
SECTION
  2
OBJECTS
  0
DICTIONARY
  0
ENDSEC
  0
EOF
